<svg width="43" height="43" viewBox="0 0 43 43" fill="none" xmlns="http://www.w3.org/2000/svg">
<path d="M41.8313 26.2238C39.0108 37.536 27.5521 44.4203 16.2373 41.5994C4.92731 38.7793 -1.95782 27.3212 0.863904 16.01C3.68315 4.69656 15.1418 -2.18831 26.4531 0.631857C37.767 3.45203 44.6517 14.9114 41.831 26.224L41.8312 26.2238H41.8313Z" fill="#6FC2FB"/>
<path d="M30.6592 18.1073C31.0795 15.2973 28.9399 13.7868 26.0141 12.7791L26.9633 8.97263L24.6459 8.39526L23.722 12.1015C23.1127 11.9496 22.4871 11.8064 21.8653 11.6645L22.7959 7.9338L20.48 7.35643L19.5303 11.1617C19.0262 11.0469 18.531 10.9335 18.0506 10.8139L18.0533 10.802L14.8576 10.004L14.2412 12.4788C14.2412 12.4788 15.9605 12.8729 15.9242 12.8972C16.8626 13.1314 17.0323 13.7525 17.0042 14.2448L15.923 18.5813C15.9876 18.5977 16.0714 18.6214 16.1639 18.6586C16.0866 18.6394 16.0043 18.6184 15.919 18.598L14.4035 24.6727C14.2889 24.9578 13.9978 25.3856 13.3417 25.2232C13.3649 25.2568 11.6574 24.8029 11.6574 24.8029L10.5068 27.4552L13.5225 28.2069C14.0835 28.3476 14.6333 28.4948 15.1747 28.6332L14.2158 32.4833L16.5305 33.0607L17.4801 29.2514C18.1125 29.4231 18.7261 29.5814 19.3269 29.7307L18.3804 33.5219L20.6979 34.0993L21.6568 30.2564C25.6084 31.0042 28.5797 30.7027 29.8303 27.1289C30.8381 24.2515 29.7802 22.5919 27.7012 21.5096C29.2154 21.1604 30.3559 20.1646 30.66 18.1076L30.6593 18.1071L30.6592 18.1073ZM25.3646 25.531C24.6484 28.4083 19.8033 26.8529 18.2324 26.4629L19.505 21.3621C21.0757 21.7542 26.113 22.5302 25.3647 25.531H25.3646ZM26.0812 18.0656C25.4279 20.6829 21.3953 19.3532 20.0871 19.0271L21.2409 14.4011C22.549 14.7271 26.7618 15.3357 26.0814 18.0656H26.0812Z" fill="white"/>
</svg>
