<svg width="258" height="258" viewBox="0 0 258 258" fill="none" xmlns="http://www.w3.org/2000/svg">
<g clip-path="url(#clip0_65_43)">
<path d="M73.6332 200.32C68.9624 199.069 65.4303 196.37 63.0368 192.224C60.6433 188.079 60.0723 183.671 61.3239 179L65.8294 162.185L82.6443 166.69L103.67 88.221L109.825 98.8812L120.485 92.7265L126.64 103.387L137.3 97.232L143.455 107.892L154.115 101.738L160.269 112.398L170.93 106.243L177.084 116.903L187.744 110.749L162.213 206.033C160.962 210.704 158.263 214.236 154.117 216.629C149.972 219.023 145.564 219.594 140.893 218.342L73.6332 200.32ZM143.896 207.132C145.484 207.558 146.96 207.377 148.322 206.591C149.684 205.805 150.578 204.617 151.003 203.029L172.029 124.56L110.374 108.04L93.8542 169.694L144.299 183.211L139.793 200.026C139.368 201.614 139.548 203.089 140.335 204.451C141.121 205.813 142.308 206.707 143.896 207.132ZM109.972 131.961L112.976 120.751L146.605 129.762L143.602 140.972L109.972 131.961ZM105.467 148.776L108.47 137.566L142.1 146.577L139.096 157.787L105.467 148.776ZM154.812 143.976C153.224 143.55 152.036 142.657 151.25 141.294C150.464 139.932 150.283 138.457 150.709 136.869C151.134 135.281 152.028 134.094 153.39 133.307C154.752 132.521 156.227 132.341 157.815 132.766C159.403 133.192 160.591 134.085 161.377 135.448C162.164 136.81 162.344 138.285 161.919 139.873C161.493 141.461 160.599 142.648 159.237 143.435C157.875 144.221 156.4 144.401 154.812 143.976ZM150.306 160.791C148.718 160.365 147.531 159.471 146.744 158.109C145.958 156.747 145.778 155.272 146.203 153.684C146.629 152.096 147.522 150.909 148.885 150.122C150.247 149.336 151.722 149.155 153.31 149.581C154.898 150.006 156.085 150.9 156.872 152.262C157.658 153.625 157.839 155.1 157.413 156.688C156.987 158.276 156.094 159.463 154.732 160.249C153.369 161.036 151.894 161.216 150.306 160.791ZM76.6369 189.11L127.082 202.627L130.085 191.417L74.0356 176.398L72.5338 182.003C72.1083 183.591 72.2887 185.067 73.0752 186.429C73.8616 187.791 75.0488 188.685 76.6369 189.11Z" fill="#598669"/>
<rect x="55.8573" y="41" width="202.837" height="240.494" rx="23" transform="rotate(13.4302 55.8573 41)" fill="url(#paint0_linear_65_43)"/>
</g>
<defs>
<linearGradient id="paint0_linear_65_43" x1="157.276" y1="41" x2="157.276" y2="281.494" gradientUnits="userSpaceOnUse">
<stop stop-color="#9ECAAD"/>
<stop offset="1" stop-color="#A09C9C" stop-opacity="0"/>
</linearGradient>
<clipPath id="clip0_65_43">
<rect width="258" height="258" fill="white"/>
</clipPath>
</defs>
</svg>
