<svg width="43" height="42" viewBox="0 0 43 42" fill="none" xmlns="http://www.w3.org/2000/svg">
<g clip-path="url(#clip0_242_79)">
<path d="M21.4629 0C33.0619 0 42.4629 9.40284 42.4629 21C42.4629 32.599 33.0619 42 21.4629 42C9.86573 42 0.462891 32.5981 0.462891 21C0.462891 9.40284 9.86573 0 21.4629 0Z" fill="#6FC2FB"/>
<path d="M22.2367 22.4827H30.2164C30.3865 22.4827 30.4668 22.4827 30.4791 22.2597C30.5443 21.4479 30.5443 20.6314 30.4791 19.8187C30.4791 19.6609 30.4007 19.5957 30.2296 19.5957H14.3487C14.1522 19.5957 14.0993 19.6609 14.0993 19.8452V22.1813C14.0993 22.4827 14.0993 22.4827 14.4139 22.4827H22.2367ZM29.588 16.8656C29.6106 16.806 29.6106 16.7408 29.588 16.6822C29.4547 16.3921 29.2969 16.1152 29.1136 15.8554C28.8376 15.4112 28.5125 15.002 28.1421 14.6344C27.9673 14.4123 27.765 14.2129 27.5382 14.0438C26.4023 13.077 25.0519 12.3929 23.6004 12.0489C22.868 11.8844 22.1196 11.806 21.3692 11.8126H14.3213C14.1248 11.8126 14.0983 11.8911 14.0983 12.0621V16.721C14.0983 16.9176 14.0983 16.9705 14.3478 16.9705H29.4935C29.4935 16.9705 29.6248 16.944 29.6513 16.8656H29.587H29.588ZM29.588 25.2128C29.3649 25.1883 29.14 25.1883 28.917 25.2128H14.362C14.1654 25.2128 14.0993 25.2128 14.0993 25.4756V30.0305C14.0993 30.2403 14.0993 30.2932 14.362 30.2932H21.0819C21.4032 30.3178 21.7245 30.2951 22.0392 30.228C23.0145 30.1581 23.9737 29.9464 24.8884 29.5977C25.2211 29.4824 25.5424 29.3321 25.8457 29.1516H25.9374C27.5127 28.3323 28.7923 27.0452 29.5993 25.4652C29.5993 25.4652 29.691 25.2667 29.588 25.2147V25.2128ZM11.4617 32.6548V32.5764V29.5183V28.4816V25.3971C11.4617 25.2261 11.4617 25.2006 11.2519 25.2006H8.40369C8.24587 25.2006 8.18066 25.2006 8.18066 24.9908V22.4969H11.2255C11.3956 22.4969 11.4617 22.4969 11.4617 22.2739V19.8064C11.4617 19.6486 11.4617 19.6099 11.2519 19.6099H8.40369C8.24587 19.6099 8.18066 19.6099 8.18066 19.4001V17.0905C8.18066 16.9459 8.18066 16.9072 8.39046 16.9072H11.2123C11.4088 16.9072 11.4617 16.9072 11.4617 16.6577V9.58334C11.4617 9.37355 11.4617 9.32063 11.7244 9.32063H21.5677C22.2821 9.34898 22.9918 9.42741 23.6939 9.55688C25.1407 9.82432 26.5309 10.3412 27.8019 11.0793C28.6448 11.5754 29.4207 12.1746 30.1115 12.8644C30.6313 13.404 31.1 13.988 31.5158 14.6098C31.9288 15.2402 32.2718 15.914 32.5411 16.618C32.5742 16.8013 32.75 16.9251 32.9333 16.8939H35.2826C35.584 16.8939 35.584 16.8939 35.5973 17.1831V19.3358C35.5973 19.5456 35.5188 19.5985 35.3081 19.5985H33.4965C33.3132 19.5985 33.2603 19.5985 33.2735 19.8348C33.3453 20.6343 33.3453 21.4366 33.2735 22.2361C33.2735 22.4591 33.2735 22.4856 33.5239 22.4856H35.5963C35.688 22.6037 35.5963 22.7218 35.5963 22.8409C35.6096 22.993 35.6096 23.1471 35.5963 23.2992V24.8878C35.5963 25.1108 35.5311 25.1769 35.3336 25.1769H32.853C32.68 25.1439 32.5118 25.2544 32.4721 25.4264C31.8815 26.9621 30.9365 28.3389 29.7155 29.4427C29.2695 29.8443 28.8008 30.2223 28.3113 30.5711C27.7858 30.8735 27.2746 31.1881 26.7359 31.4376C25.7446 31.8837 24.7051 32.2125 23.6382 32.4214C22.6251 32.6028 21.5979 32.685 20.5669 32.6709H11.458V32.6576L11.4617 32.6548Z" fill="white"/>
</g>
<defs>
<clipPath id="clip0_242_79">
<rect width="42" height="42" fill="white" transform="translate(0.462891)"/>
</clipPath>
</defs>
</svg>
