<svg width="426" height="426" viewBox="0 0 426 426" fill="none" xmlns="http://www.w3.org/2000/svg">
<rect x="0.5" y="0.5" width="425" height="425" stroke="#E8E8E8"/>
<path d="M73.2188 172.062C72.6665 172.062 72.2188 172.51 72.2188 173.062C72.2188 173.615 72.6665 174.062 73.2188 174.062V172.062ZM352.781 174.062C353.334 174.062 353.781 173.615 353.781 173.062C353.781 172.51 353.334 172.062 352.781 172.062V174.062ZM74.8958 261.92C74.3435 261.92 73.8958 262.368 73.8958 262.92C73.8958 263.473 74.3435 263.92 74.8958 263.92V261.92ZM354.458 263.92C355.011 263.92 355.458 263.473 355.458 262.92C355.458 262.368 355.011 261.92 354.458 261.92V263.92ZM371.75 213C371.75 300.675 300.675 371.75 213 371.75V373.75C301.78 373.75 373.75 301.78 373.75 213H371.75ZM213 371.75C125.325 371.75 54.25 300.675 54.25 213H52.25C52.25 301.78 124.22 373.75 213 373.75V371.75ZM54.25 213C54.25 125.325 125.325 54.25 213 54.25V52.25C124.22 52.25 52.25 124.22 52.25 213H54.25ZM213 54.25C300.675 54.25 371.75 125.325 371.75 213H373.75C373.75 124.22 301.78 52.25 213 52.25V54.25ZM213 371.75C203.681 371.75 194.724 367.437 186.49 359.477C178.252 351.512 170.787 339.939 164.496 325.559C151.916 296.804 144.109 257.009 144.109 213H142.109C142.109 257.218 149.949 297.298 162.664 326.361C169.021 340.891 176.616 352.712 185.1 360.915C193.59 369.122 203.019 373.75 213 373.75V371.75ZM144.109 213C144.109 168.991 151.916 129.196 164.496 100.441C170.787 86.0614 178.252 74.4878 186.49 66.5229C194.724 58.5627 203.681 54.25 213 54.25V52.25C203.019 52.25 193.59 56.8776 185.1 65.085C176.616 73.2877 169.021 85.1089 162.664 99.6389C149.949 128.702 142.109 168.782 142.109 213H144.109ZM213 373.75C222.981 373.75 232.41 369.122 240.9 360.915C249.384 352.712 256.979 340.891 263.336 326.361C276.051 297.298 283.891 257.218 283.891 213H281.891C281.891 257.009 274.084 296.804 261.504 325.559C255.213 339.939 247.748 351.512 239.51 359.477C231.276 367.437 222.319 371.75 213 371.75V373.75ZM283.891 213C283.891 168.782 276.051 128.702 263.336 99.6389C256.979 85.1089 249.384 73.2877 240.9 65.085C232.41 56.8776 222.981 52.25 213 52.25V54.25C222.319 54.25 231.276 58.5627 239.51 66.5229C247.748 74.4878 255.213 86.0614 261.504 100.441C274.084 129.196 281.891 168.991 281.891 213H283.891ZM73.2188 174.062H352.781V172.062H73.2188V174.062ZM74.8958 263.92H354.458V261.92H74.8958V263.92Z" fill="#DCDCDC"/>
</svg>
