<svg width="1138" height="363" viewBox="0 0 1138 363" fill="none" xmlns="http://www.w3.org/2000/svg">
<path d="M39 12L571.5 12" stroke="#E6E4DE" stroke-width="2"/>
<line x1="127.749" y1="127.032" x2="570.749" y2="12.0321" stroke="#E6E4DE" stroke-width="2"/>
<line x1="266.394" y1="242.204" x2="568.394" y2="12.2045" stroke="#E6E4DE" stroke-width="2"/>
<line x1="429.098" y1="303.569" x2="568.098" y2="12.569" stroke="#E6E4DE" stroke-width="2"/>
<line x1="568" y1="324" x2="568" y2="12" stroke="#E6E4DE" stroke-width="2"/>
<path fill-rule="evenodd" clip-rule="evenodd" d="M20.092 6C20.092 9.31371 17.4058 12 14.092 12C10.7783 12 8.09204 9.31371 8.09204 6C8.09204 2.68629 10.7783 0 14.092 0C17.4058 0 20.092 2.68629 20.092 6ZM18.092 6C18.092 8.20914 16.3012 10 14.092 10C11.8829 10 10.092 8.20914 10.092 6C10.092 3.79086 11.8829 2 14.092 2C16.3012 2 18.092 3.79086 18.092 6Z" fill="#5C4532"/>
<path d="M14.092 15C7.61766 15 2.10132 18.8284 0 24.192C0.511895 24.7004 1.05114 25.1812 1.61533 25.6321C3.18007 20.7077 8.08876 17 14.092 17C20.0953 17 25.004 20.7077 26.5688 25.6321C27.133 25.1812 27.6722 24.7004 28.1841 24.1921C26.0828 18.8284 20.5664 15 14.092 15Z" fill="#5C4532"/>
<path fill-rule="evenodd" clip-rule="evenodd" d="M107.092 125C107.092 128.314 104.406 131 101.092 131C97.7783 131 95.092 128.314 95.092 125C95.092 121.686 97.7783 119 101.092 119C104.406 119 107.092 121.686 107.092 125ZM105.092 125C105.092 127.209 103.301 129 101.092 129C98.8829 129 97.092 127.209 97.092 125C97.092 122.791 98.8829 121 101.092 121C103.301 121 105.092 122.791 105.092 125Z" fill="#5C4532"/>
<path d="M101.092 134C94.6177 134 89.1013 137.828 87 143.192C87.5119 143.7 88.0511 144.181 88.6153 144.632C90.1801 139.708 95.0888 136 101.092 136C107.095 136 112.004 139.708 113.569 144.632C114.133 144.181 114.672 143.7 115.184 143.192C113.083 137.828 107.566 134 101.092 134Z" fill="#5C4532"/>
<path fill-rule="evenodd" clip-rule="evenodd" d="M247.092 247C247.092 250.314 244.406 253 241.092 253C237.778 253 235.092 250.314 235.092 247C235.092 243.686 237.778 241 241.092 241C244.406 241 247.092 243.686 247.092 247ZM245.092 247C245.092 249.209 243.301 251 241.092 251C238.883 251 237.092 249.209 237.092 247C237.092 244.791 238.883 243 241.092 243C243.301 243 245.092 244.791 245.092 247Z" fill="#5C4532"/>
<path d="M241.092 256C234.618 256 229.101 259.828 227 265.192C227.512 265.7 228.051 266.181 228.615 266.632C230.18 261.708 235.089 258 241.092 258C247.095 258 252.004 261.708 253.569 266.632C254.133 266.181 254.672 265.7 255.184 265.192C253.083 259.828 247.566 256 241.092 256Z" fill="#5C4532"/>
<path fill-rule="evenodd" clip-rule="evenodd" d="M417.092 317C417.092 320.314 414.406 323 411.092 323C407.778 323 405.092 320.314 405.092 317C405.092 313.686 407.778 311 411.092 311C414.406 311 417.092 313.686 417.092 317ZM415.092 317C415.092 319.209 413.301 321 411.092 321C408.883 321 407.092 319.209 407.092 317C407.092 314.791 408.883 313 411.092 313C413.301 313 415.092 314.791 415.092 317Z" fill="#5C4532"/>
<path d="M411.092 326C404.618 326 399.101 329.828 397 335.192C397.512 335.7 398.051 336.181 398.615 336.632C400.18 331.708 405.089 328 411.092 328C417.095 328 422.004 331.708 423.569 336.632C424.133 336.181 424.672 335.7 425.184 335.192C423.083 329.828 417.566 326 411.092 326Z" fill="#5C4532"/>
<path d="M1099 12L570.5 12" stroke="#E6E4DE" stroke-width="2"/>
<line x1="1009.57" y1="129.628" x2="568.744" y2="12.9667" stroke="#E6E4DE" stroke-width="2"/>
<line x1="870.394" y1="243.796" x2="568.394" y2="13.7955" stroke="#E6E4DE" stroke-width="2"/>
<line x1="710.1" y1="307.435" x2="568.1" y2="13.4349" stroke="#E6E4DE" stroke-width="2"/>
<path fill-rule="evenodd" clip-rule="evenodd" d="M1117.91 6C1117.91 9.31371 1120.59 12 1123.91 12C1127.22 12 1129.91 9.31371 1129.91 6C1129.91 2.68629 1127.22 0 1123.91 0C1120.59 0 1117.91 2.68629 1117.91 6ZM1119.91 6C1119.91 8.20914 1121.7 10 1123.91 10C1126.12 10 1127.91 8.20914 1127.91 6C1127.91 3.79086 1126.12 2 1123.91 2C1121.7 2 1119.91 3.79086 1119.91 6Z" fill="#5C4532"/>
<path d="M1123.91 15C1130.38 15 1135.9 18.8284 1138 24.192C1137.49 24.7004 1136.95 25.1812 1136.38 25.6321C1134.82 20.7077 1129.91 17 1123.91 17C1117.9 17 1113 20.7077 1111.43 25.6321C1110.87 25.1812 1110.33 24.7004 1109.82 24.1921C1111.92 18.8284 1117.43 15 1123.91 15Z" fill="#5C4532"/>
<path fill-rule="evenodd" clip-rule="evenodd" d="M1030.91 125C1030.91 128.314 1033.59 131 1036.91 131C1040.22 131 1042.91 128.314 1042.91 125C1042.91 121.686 1040.22 119 1036.91 119C1033.59 119 1030.91 121.686 1030.91 125ZM1032.91 125C1032.91 127.209 1034.7 129 1036.91 129C1039.12 129 1040.91 127.209 1040.91 125C1040.91 122.791 1039.12 121 1036.91 121C1034.7 121 1032.91 122.791 1032.91 125Z" fill="#5C4532"/>
<path d="M1036.91 134C1043.38 134 1048.9 137.828 1051 143.192C1050.49 143.7 1049.95 144.181 1049.38 144.632C1047.82 139.708 1042.91 136 1036.91 136C1030.9 136 1026 139.708 1024.43 144.632C1023.87 144.181 1023.33 143.7 1022.82 143.192C1024.92 137.828 1030.43 134 1036.91 134Z" fill="#5C4532"/>
<path fill-rule="evenodd" clip-rule="evenodd" d="M890.908 247C890.908 250.314 893.594 253 896.908 253C900.222 253 902.908 250.314 902.908 247C902.908 243.686 900.222 241 896.908 241C893.594 241 890.908 243.686 890.908 247ZM892.908 247C892.908 249.209 894.699 251 896.908 251C899.117 251 900.908 249.209 900.908 247C900.908 244.791 899.117 243 896.908 243C894.699 243 892.908 244.791 892.908 247Z" fill="#5C4532"/>
<path d="M896.908 256C903.382 256 908.899 259.828 911 265.192C910.488 265.7 909.949 266.181 909.385 266.632C907.82 261.708 902.911 258 896.908 258C890.905 258 885.996 261.708 884.431 266.632C883.867 266.181 883.328 265.7 882.816 265.192C884.917 259.828 890.434 256 896.908 256Z" fill="#5C4532"/>
<path fill-rule="evenodd" clip-rule="evenodd" d="M720.908 317C720.908 320.314 723.594 323 726.908 323C730.222 323 732.908 320.314 732.908 317C732.908 313.686 730.222 311 726.908 311C723.594 311 720.908 313.686 720.908 317ZM722.908 317C722.908 319.209 724.699 321 726.908 321C729.117 321 730.908 319.209 730.908 317C730.908 314.791 729.117 313 726.908 313C724.699 313 722.908 314.791 722.908 317Z" fill="#5C4532"/>
<path d="M726.908 326C733.382 326 738.899 329.828 741 335.192C740.488 335.7 739.949 336.181 739.385 336.632C737.82 331.708 732.911 328 726.908 328C720.905 328 715.996 331.708 714.431 336.632C713.867 336.181 713.328 335.7 712.816 335.192C714.917 329.828 720.434 326 726.908 326Z" fill="#5C4532"/>
<path fill-rule="evenodd" clip-rule="evenodd" d="M575.092 343C575.092 346.314 572.406 349 569.092 349C565.778 349 563.092 346.314 563.092 343C563.092 339.686 565.778 337 569.092 337C572.406 337 575.092 339.686 575.092 343ZM573.092 343C573.092 345.209 571.301 347 569.092 347C566.883 347 565.092 345.209 565.092 343C565.092 340.791 566.883 339 569.092 339C571.301 339 573.092 340.791 573.092 343Z" fill="#5C4532"/>
<path d="M569.092 352C562.618 352 557.101 355.828 555 361.192C555.512 361.7 556.051 362.181 556.615 362.632C558.18 357.708 563.089 354 569.092 354C575.095 354 580.004 357.708 581.569 362.632C582.133 362.181 582.672 361.7 583.184 361.192C581.083 355.828 575.566 352 569.092 352Z" fill="#5C4532"/>
</svg>
