<svg width="1138" height="404" viewBox="0 0 1138 404" fill="none" xmlns="http://www.w3.org/2000/svg">
<path d="M930.6 255H922.2V239.4H924.36V252.936H930.6V255ZM941.213 255H933.173V239.4H941.213V241.464H935.333V246.048H940.493V248.112H935.333V252.936H941.213V255ZM949.161 255H947.001V241.224L946.617 240.984L945.393 241.464H943.809V239.4H952.209V241.464H950.625L949.521 240.984L949.161 241.224V255ZM960.254 245.52H957.374V244.08L958.814 239.4H960.254V245.52ZM968.371 255.12C967.675 255.12 966.835 255.024 966.091 254.856V253.056H968.851C970.603 253.056 971.251 252 971.251 250.8C971.251 246.84 965.803 248.592 965.803 243.336C965.803 240.576 967.963 239.28 970.363 239.28C971.467 239.28 972.091 239.376 972.571 239.52V241.344H970.603C968.827 241.344 967.891 242.16 967.891 243.336C967.891 246.936 973.411 245.568 973.411 250.776C973.411 253.632 971.323 255.12 968.371 255.12ZM989.476 255.12C988.42 255.12 987.652 255.048 987.028 254.88V239.52C987.652 239.352 988.42 239.28 989.476 239.28C993.316 239.28 995.428 242.112 995.428 247.2C995.428 252.288 993.316 255.12 989.476 255.12ZM989.668 241.344C989.5 241.344 989.332 241.344 989.188 241.344V253.056C989.332 253.056 989.5 253.056 989.668 253.056C991.948 253.056 993.268 250.872 993.268 247.2C993.268 243.528 991.948 241.344 989.668 241.344ZM1006.04 255H998.001V239.4H1006.04V241.464H1000.16V246.048H1005.32V248.112H1000.16V252.936H1006.04V255ZM1015.12 255.12C1011.01 255.12 1008.64 252.144 1008.64 247.2C1008.64 242.568 1010.77 239.28 1015.12 239.28C1015.93 239.28 1016.53 239.352 1017.04 239.52V241.344H1015.12C1011.88 241.344 1010.8 244.032 1010.8 247.2C1010.8 250.296 1011.88 253.056 1015.12 253.056H1017.04V254.88C1016.53 255.048 1015.93 255.12 1015.12 255.12ZM1027.65 255H1019.61V239.4H1027.65V241.464H1021.77V246.048H1026.93V248.112H1021.77V252.936H1027.65V255ZM1032.41 255H1030.25V239.4H1031.69L1036.85 249.624H1037.23L1036.49 244.512V239.4H1038.65V255H1037.18L1032.07 244.704H1031.69L1032.41 250.416V255ZM1046.4 255H1044.24V241.224L1043.86 240.984L1042.64 241.464H1041.05V239.4H1049.45V241.464H1047.87L1046.76 240.984L1046.4 241.224V255ZM1054.02 255H1051.86V239.4H1054.76C1058.36 239.4 1060.26 241.008 1060.26 244.032C1060.26 246.864 1058.62 248.16 1056.56 248.4V248.784L1058.65 251.136L1060.26 253.8V255H1058.55L1054.76 248.664H1054.02V255ZM1054.02 241.464V246.6H1055C1057.06 246.6 1058.1 245.736 1058.1 244.032C1058.1 242.328 1057.06 241.464 1055 241.464H1054.02ZM1064.53 255H1062.66V253.8L1065.78 239.4H1067.94L1071.06 253.8V255H1069.19L1068.61 252.144H1065.13L1064.53 255ZM1065.35 249.84L1065.73 250.08H1068.04L1068.4 249.84L1067.39 246.408L1067.05 242.76H1066.67L1066.33 246.408L1065.35 249.84ZM1081.87 255H1073.47V239.4H1075.63V252.936H1081.87V255ZM1092.74 255H1084.34V252.888H1085.9L1087.08 253.368L1087.46 253.128V241.272L1087.08 241.032L1086.24 241.512H1085.01V239.4H1092.07V241.512H1090.85L1090.01 241.032L1089.62 241.272V253.128L1090.01 253.368L1091.18 252.888H1092.74V255ZM1103.48 255H1095.08V252.936L1098.12 247.2L1101.41 241.848V241.464H1095.32V239.4H1103.48V241.464L1100.43 247.2L1097.16 252.552V252.936H1103.48V255ZM1114.09 255H1106.05V239.4H1114.09V241.464H1108.21V246.048H1113.37V248.112H1108.21V252.936H1114.09V255Z" fill="white"/>
<path d="M39 53L571.5 53" stroke="#DCDCDC" stroke-width="2"/>
<line x1="127.749" y1="168.032" x2="570.749" y2="53.0321" stroke="#DCDCDC" stroke-width="2"/>
<line x1="266.394" y1="283.204" x2="568.394" y2="53.2045" stroke="#DCDCDC" stroke-width="2"/>
<line x1="429.098" y1="344.569" x2="568.098" y2="53.569" stroke="#DCDCDC" stroke-width="2"/>
<line x1="568" y1="365" x2="568" y2="53" stroke="#DCDCDC" stroke-width="2"/>
<path fill-rule="evenodd" clip-rule="evenodd" d="M20.092 47C20.092 50.3137 17.4058 53 14.092 53C10.7783 53 8.09204 50.3137 8.09204 47C8.09204 43.6863 10.7783 41 14.092 41C17.4058 41 20.092 43.6863 20.092 47ZM18.092 47C18.092 49.2091 16.3012 51 14.092 51C11.8829 51 10.092 49.2091 10.092 47C10.092 44.7909 11.8829 43 14.092 43C16.3012 43 18.092 44.7909 18.092 47Z" fill="#41416A"/>
<path d="M14.092 56C7.61766 56 2.10132 59.8284 0 65.192C0.511895 65.7004 1.05114 66.1812 1.61533 66.6321C3.18007 61.7077 8.08876 58 14.092 58C20.0953 58 25.004 61.7077 26.5688 66.6321C27.133 66.1812 27.6722 65.7004 28.1841 65.1921C26.0828 59.8284 20.5664 56 14.092 56Z" fill="#41416A"/>
<path fill-rule="evenodd" clip-rule="evenodd" d="M107.092 166C107.092 169.314 104.406 172 101.092 172C97.7783 172 95.092 169.314 95.092 166C95.092 162.686 97.7783 160 101.092 160C104.406 160 107.092 162.686 107.092 166ZM105.092 166C105.092 168.209 103.301 170 101.092 170C98.8829 170 97.092 168.209 97.092 166C97.092 163.791 98.8829 162 101.092 162C103.301 162 105.092 163.791 105.092 166Z" fill="#41416A"/>
<path d="M101.092 175C94.6177 175 89.1013 178.828 87 184.192C87.5119 184.7 88.0511 185.181 88.6153 185.632C90.1801 180.708 95.0888 177 101.092 177C107.095 177 112.004 180.708 113.569 185.632C114.133 185.181 114.672 184.7 115.184 184.192C113.083 178.828 107.566 175 101.092 175Z" fill="#41416A"/>
<path fill-rule="evenodd" clip-rule="evenodd" d="M247.092 288C247.092 291.314 244.406 294 241.092 294C237.778 294 235.092 291.314 235.092 288C235.092 284.686 237.778 282 241.092 282C244.406 282 247.092 284.686 247.092 288ZM245.092 288C245.092 290.209 243.301 292 241.092 292C238.883 292 237.092 290.209 237.092 288C237.092 285.791 238.883 284 241.092 284C243.301 284 245.092 285.791 245.092 288Z" fill="#41416A"/>
<path d="M241.092 297C234.618 297 229.101 300.828 227 306.192C227.512 306.7 228.051 307.181 228.615 307.632C230.18 302.708 235.089 299 241.092 299C247.095 299 252.004 302.708 253.569 307.632C254.133 307.181 254.672 306.7 255.184 306.192C253.083 300.828 247.566 297 241.092 297Z" fill="#41416A"/>
<path fill-rule="evenodd" clip-rule="evenodd" d="M417.092 358C417.092 361.314 414.406 364 411.092 364C407.778 364 405.092 361.314 405.092 358C405.092 354.686 407.778 352 411.092 352C414.406 352 417.092 354.686 417.092 358ZM415.092 358C415.092 360.209 413.301 362 411.092 362C408.883 362 407.092 360.209 407.092 358C407.092 355.791 408.883 354 411.092 354C413.301 354 415.092 355.791 415.092 358Z" fill="#41416A"/>
<path d="M411.092 367C404.618 367 399.101 370.828 397 376.192C397.512 376.7 398.051 377.181 398.615 377.632C400.18 372.708 405.089 369 411.092 369C417.095 369 422.004 372.708 423.569 377.632C424.133 377.181 424.672 376.7 425.184 376.192C423.083 370.828 417.566 367 411.092 367Z" fill="#41416A"/>
<path d="M1099 53L570.5 53" stroke="#DCDCDC" stroke-width="2"/>
<line x1="1009.57" y1="170.628" x2="568.744" y2="53.9667" stroke="#DCDCDC" stroke-width="2"/>
<line x1="870.394" y1="284.796" x2="568.394" y2="54.7955" stroke="#DCDCDC" stroke-width="2"/>
<line x1="710.1" y1="348.435" x2="568.1" y2="54.4349" stroke="#DCDCDC" stroke-width="2"/>
<path fill-rule="evenodd" clip-rule="evenodd" d="M1117.91 47C1117.91 50.3137 1120.59 53 1123.91 53C1127.22 53 1129.91 50.3137 1129.91 47C1129.91 43.6863 1127.22 41 1123.91 41C1120.59 41 1117.91 43.6863 1117.91 47ZM1119.91 47C1119.91 49.2091 1121.7 51 1123.91 51C1126.12 51 1127.91 49.2091 1127.91 47C1127.91 44.7909 1126.12 43 1123.91 43C1121.7 43 1119.91 44.7909 1119.91 47Z" fill="#41416A"/>
<path d="M1123.91 56C1130.38 56 1135.9 59.8284 1138 65.192C1137.49 65.7004 1136.95 66.1812 1136.38 66.6321C1134.82 61.7077 1129.91 58 1123.91 58C1117.9 58 1113 61.7077 1111.43 66.6321C1110.87 66.1812 1110.33 65.7004 1109.82 65.1921C1111.92 59.8284 1117.43 56 1123.91 56Z" fill="#41416A"/>
<path fill-rule="evenodd" clip-rule="evenodd" d="M1030.91 166C1030.91 169.314 1033.59 172 1036.91 172C1040.22 172 1042.91 169.314 1042.91 166C1042.91 162.686 1040.22 160 1036.91 160C1033.59 160 1030.91 162.686 1030.91 166ZM1032.91 166C1032.91 168.209 1034.7 170 1036.91 170C1039.12 170 1040.91 168.209 1040.91 166C1040.91 163.791 1039.12 162 1036.91 162C1034.7 162 1032.91 163.791 1032.91 166Z" fill="#41416A"/>
<path d="M1036.91 175C1043.38 175 1048.9 178.828 1051 184.192C1050.49 184.7 1049.95 185.181 1049.38 185.632C1047.82 180.708 1042.91 177 1036.91 177C1030.9 177 1026 180.708 1024.43 185.632C1023.87 185.181 1023.33 184.7 1022.82 184.192C1024.92 178.828 1030.43 175 1036.91 175Z" fill="#41416A"/>
<path fill-rule="evenodd" clip-rule="evenodd" d="M890.908 288C890.908 291.314 893.594 294 896.908 294C900.222 294 902.908 291.314 902.908 288C902.908 284.686 900.222 282 896.908 282C893.594 282 890.908 284.686 890.908 288ZM892.908 288C892.908 290.209 894.699 292 896.908 292C899.117 292 900.908 290.209 900.908 288C900.908 285.791 899.117 284 896.908 284C894.699 284 892.908 285.791 892.908 288Z" fill="#41416A"/>
<path d="M896.908 297C903.382 297 908.899 300.828 911 306.192C910.488 306.7 909.949 307.181 909.385 307.632C907.82 302.708 902.911 299 896.908 299C890.905 299 885.996 302.708 884.431 307.632C883.867 307.181 883.328 306.7 882.816 306.192C884.917 300.828 890.434 297 896.908 297Z" fill="#41416A"/>
<path fill-rule="evenodd" clip-rule="evenodd" d="M720.908 358C720.908 361.314 723.594 364 726.908 364C730.222 364 732.908 361.314 732.908 358C732.908 354.686 730.222 352 726.908 352C723.594 352 720.908 354.686 720.908 358ZM722.908 358C722.908 360.209 724.699 362 726.908 362C729.117 362 730.908 360.209 730.908 358C730.908 355.791 729.117 354 726.908 354C724.699 354 722.908 355.791 722.908 358Z" fill="#41416A"/>
<path d="M726.908 367C733.382 367 738.899 370.828 741 376.192C740.488 376.7 739.949 377.181 739.385 377.632C737.82 372.708 732.911 369 726.908 369C720.905 369 715.996 372.708 714.431 377.632C713.867 377.181 713.328 376.7 712.816 376.192C714.917 370.828 720.434 367 726.908 367Z" fill="#41416A"/>
<path fill-rule="evenodd" clip-rule="evenodd" d="M575.092 384C575.092 387.314 572.406 390 569.092 390C565.778 390 563.092 387.314 563.092 384C563.092 380.686 565.778 378 569.092 378C572.406 378 575.092 380.686 575.092 384ZM573.092 384C573.092 386.209 571.301 388 569.092 388C566.883 388 565.092 386.209 565.092 384C565.092 381.791 566.883 380 569.092 380C571.301 380 573.092 381.791 573.092 384Z" fill="#41416A"/>
<path d="M569.092 393C562.618 393 557.101 396.828 555 402.192C555.512 402.7 556.051 403.181 556.615 403.632C558.18 398.708 563.089 395 569.092 395C575.095 395 580.004 398.708 581.569 403.632C582.133 403.181 582.672 402.7 583.184 402.192C581.083 396.828 575.566 393 569.092 393Z" fill="#41416A"/>
<circle cx="569" cy="53" r="53" fill="white"/>
<path d="M544.334 62.25V54.0216M560.778 62.25V54.0216M577.223 62.25V54.0216M593.667 62.25V54.0216M539.4 72.7334H598.6V82.6H539.4V72.7334ZM539.4 43.1334V36.5556L567.784 23.4L598.6 36.5556V43.1334H539.4Z" stroke="#41416A" stroke-width="2" stroke-linecap="round" stroke-linejoin="round"/>
</svg>
