<svg width="1284" height="633" viewBox="0 0 1284 633" fill="none" xmlns="http://www.w3.org/2000/svg">
<rect x="380.5" y="91.5" width="488" height="489" stroke="#F0EBDF"/>
<path d="M464.047 289.063C463.495 289.063 463.047 289.51 463.047 290.063C463.047 290.615 463.495 291.063 464.047 291.063V289.063ZM784.953 291.063C785.506 291.063 785.953 290.615 785.953 290.063C785.953 289.51 785.506 289.063 784.953 289.063V291.063ZM465.972 392.42C465.42 392.42 464.972 392.868 464.972 393.42C464.972 393.972 465.42 394.42 465.972 394.42V392.42ZM786.878 394.42C787.431 394.42 787.878 393.972 787.878 393.42C787.878 392.868 787.431 392.42 786.878 392.42V394.42ZM806.875 336C806.875 436.932 725.221 518.75 624.5 518.75V520.75C726.329 520.75 808.875 438.033 808.875 336H806.875ZM624.5 518.75C523.779 518.75 442.125 436.932 442.125 336H440.125C440.125 438.033 522.671 520.75 624.5 520.75V518.75ZM442.125 336C442.125 235.068 523.779 153.25 624.5 153.25V151.25C522.671 151.25 440.125 233.967 440.125 336H442.125ZM624.5 153.25C725.221 153.25 806.875 235.068 806.875 336H808.875C808.875 233.967 726.329 151.25 624.5 151.25V153.25ZM624.5 518.75C613.755 518.75 603.439 513.766 593.968 504.592C584.493 495.413 575.914 482.082 568.688 465.531C554.237 432.432 545.273 386.637 545.273 336H543.273C543.273 386.845 552.27 432.925 566.855 466.331C574.147 483.032 582.855 496.611 592.576 506.028C602.302 515.45 613.091 520.75 624.5 520.75V518.75ZM545.273 336C545.273 285.363 554.237 239.568 568.688 206.469C575.914 189.918 584.493 176.587 593.968 167.408C603.439 158.234 613.755 153.25 624.5 153.25V151.25C613.091 151.25 602.302 156.55 592.576 165.972C582.855 175.389 574.147 188.968 566.855 205.669C552.27 239.075 543.273 285.155 543.273 336H545.273ZM624.5 520.75C635.909 520.75 646.698 515.45 656.424 506.028C666.145 496.611 674.853 483.032 682.145 466.331C696.73 432.925 705.727 386.845 705.727 336H703.727C703.727 386.637 694.763 432.432 680.312 465.531C673.086 482.082 664.507 495.413 655.032 504.592C645.561 513.766 635.245 518.75 624.5 518.75V520.75ZM705.727 336C705.727 285.155 696.73 239.075 682.145 205.669C674.853 188.968 666.145 175.389 656.424 165.972C646.698 156.55 635.909 151.25 624.5 151.25V153.25C635.245 153.25 645.561 158.234 655.032 167.408C664.507 176.587 673.086 189.918 680.312 206.469C694.763 239.568 703.727 285.363 703.727 336H705.727ZM464.047 291.063H784.953V289.063H464.047V291.063ZM465.972 394.42H786.878V392.42H465.972V394.42Z" fill="#F0EBDF"/>
<path d="M170.938 288.625C170.385 288.625 169.938 289.073 169.938 289.625C169.938 290.177 170.385 290.625 170.938 290.625V288.625ZM492.063 290.625C492.615 290.625 493.063 290.177 493.063 289.625C493.063 289.073 492.615 288.625 492.063 288.625V290.625ZM172.864 391.842C172.312 391.842 171.864 392.29 171.864 392.842C171.864 393.394 172.312 393.842 172.864 393.842V391.842ZM493.989 393.842C494.541 393.842 494.989 393.394 494.989 392.842C494.989 392.29 494.541 391.842 493.989 391.842V393.842ZM514 335.5C514 436.292 432.292 518 331.5 518V520C433.397 520 516 437.397 516 335.5H514ZM331.5 518C230.708 518 149 436.292 149 335.5H147C147 437.397 229.603 520 331.5 520V518ZM149 335.5C149 234.708 230.708 153 331.5 153V151C229.603 151 147 233.603 147 335.5H149ZM331.5 153C432.292 153 514 234.708 514 335.5H516C516 233.603 433.397 151 331.5 151V153ZM331.5 518C320.746 518 310.423 513.023 300.946 503.861C291.464 494.694 282.88 481.381 275.649 464.853C261.188 431.8 252.219 386.068 252.219 335.5H250.219C250.219 386.277 259.221 432.294 273.816 465.655C281.113 482.334 289.828 495.894 299.556 505.299C309.288 514.708 320.085 520 331.5 520V518ZM252.219 335.5C252.219 284.932 261.188 239.2 275.649 206.147C282.88 189.619 291.464 176.306 300.946 167.139C310.423 157.977 320.746 153 331.5 153V151C320.085 151 309.288 156.292 299.556 165.701C289.828 175.106 281.113 188.666 273.816 205.345C259.221 238.706 250.219 284.723 250.219 335.5H252.219ZM331.5 520C342.915 520 353.712 514.708 363.444 505.299C373.172 495.894 381.887 482.334 389.184 465.655C403.779 432.294 412.781 386.277 412.781 335.5H410.781C410.781 386.068 401.812 431.8 387.351 464.853C380.12 481.381 371.536 494.694 362.054 503.861C352.577 513.023 342.254 518 331.5 518V520ZM412.781 335.5C412.781 284.723 403.779 238.706 389.184 205.345C381.887 188.666 373.172 175.106 363.444 165.701C353.712 156.292 342.915 151 331.5 151V153C342.254 153 352.577 157.977 362.054 167.139C371.536 176.306 380.12 189.619 387.351 206.147C401.812 239.2 410.781 284.932 410.781 335.5H412.781ZM170.938 290.625H492.063V288.625H170.938V290.625ZM172.864 393.842H493.989V391.842H172.864V393.842Z" fill="#F0EBDF"/>
<path d="M774.875 288.625C774.323 288.625 773.875 289.073 773.875 289.625C773.875 290.177 774.323 290.625 774.875 290.625V288.625ZM1095.13 290.625C1095.68 290.625 1096.13 290.177 1096.13 289.625C1096.13 289.073 1095.68 288.625 1095.13 288.625V290.625ZM776.796 391.842C776.244 391.842 775.796 392.29 775.796 392.842C775.796 393.394 776.244 393.842 776.796 393.842V391.842ZM1097.05 393.842C1097.6 393.842 1098.05 393.394 1098.05 392.842C1098.05 392.29 1097.6 391.842 1097.05 391.842V393.842ZM1117 335.5C1117 436.295 1035.51 518 935 518V520C1036.62 520 1119 437.394 1119 335.5H1117ZM935 518C834.487 518 753 436.295 753 335.5H751C751 437.394 833.377 520 935 520V518ZM753 335.5C753 234.705 834.487 153 935 153V151C833.377 151 751 233.606 751 335.5H753ZM935 153C1035.51 153 1117 234.705 1117 335.5H1119C1119 233.606 1036.62 151 935 151V153ZM935 518C924.278 518 913.983 513.024 904.532 503.862C895.076 494.695 886.515 481.382 879.304 464.854C864.882 431.801 855.938 386.068 855.938 335.5H853.938C853.938 386.276 862.915 432.294 877.471 465.654C884.748 482.333 893.439 495.893 903.14 505.298C912.846 514.707 923.614 520 935 520V518ZM855.938 335.5C855.938 284.932 864.882 239.199 879.304 206.146C886.515 189.618 895.076 176.305 904.532 167.138C913.983 157.976 924.278 153 935 153V151C923.614 151 912.846 156.293 903.14 165.702C893.439 175.107 884.748 188.667 877.471 205.346C862.915 238.706 853.938 284.724 853.938 335.5H855.938ZM935 520C946.386 520 957.154 514.707 966.86 505.298C976.561 495.893 985.252 482.333 992.529 465.654C1007.08 432.294 1016.06 386.276 1016.06 335.5H1014.06C1014.06 386.068 1005.12 431.801 990.696 464.854C983.485 481.382 974.924 494.695 965.468 503.862C956.017 513.024 945.723 518 935 518V520ZM1016.06 335.5C1016.06 284.724 1007.08 238.706 992.529 205.346C985.252 188.667 976.561 175.107 966.86 165.702C957.154 156.293 946.386 151 935 151V153C945.723 153 956.017 157.976 965.468 167.138C974.924 176.305 983.485 189.618 990.696 206.146C1005.12 239.199 1014.06 284.932 1014.06 335.5H1016.06ZM774.875 290.625H1095.13V288.625H774.875V290.625ZM776.796 393.842H1097.05V391.842H776.796V393.842Z" fill="#F0EBDF"/>
<g clip-path="url(#clip0_200_60)">
<path fill-rule="evenodd" clip-rule="evenodd" d="M979.226 73.4469L960.081 113.512C960.008 113.661 959.985 113.829 960.015 113.992C960.045 114.155 960.126 114.304 960.248 114.418L1011.95 163.781C1012.1 163.921 1012.3 164 1012.5 164C1012.7 164 1012.9 163.921 1013.05 163.781L1064.75 114.421C1064.87 114.308 1064.96 114.158 1064.99 113.995C1065.02 113.832 1064.99 113.664 1064.92 113.515L1045.77 73.45C1045.71 73.3154 1045.61 73.2014 1045.49 73.1216C1045.36 73.0418 1045.22 72.9996 1045.07 73H979.937C979.788 72.9981 979.642 73.0394 979.515 73.1187C979.389 73.1979 979.289 73.3119 979.226 73.4469Z" fill="#F0EBDF"/>
<path fill-rule="evenodd" clip-rule="evenodd" d="M1019.14 117.626C1018.77 117.654 1016.85 117.768 1012.58 117.768C1009.17 117.768 1006.76 117.666 1005.91 117.626C992.759 117.05 982.944 114.769 982.944 112.039C982.944 109.308 992.759 107.031 1005.91 106.445V115.355C1006.77 115.417 1009.23 115.561 1012.63 115.561C1016.72 115.561 1018.76 115.392 1019.13 115.358V106.451C1032.25 107.034 1042.05 109.314 1042.05 112.039C1042.05 114.763 1032.26 117.044 1019.13 117.623L1019.14 117.626ZM1019.14 105.53V97.5568H1037.46V85.3986H987.597V97.5568H1005.91V105.527C991.024 106.208 979.832 109.145 979.832 112.664C979.832 116.184 991.024 119.118 1005.91 119.802V145.351H1019.14V119.793C1033.99 119.112 1045.16 116.178 1045.16 112.661C1045.16 109.145 1034 106.211 1019.14 105.527L1019.14 105.53Z" fill="white"/>
</g>
<path d="M262.756 561.222C257.465 582.617 235.968 595.637 214.741 590.302C193.523 584.968 180.607 563.297 185.9 541.904C191.189 520.507 212.686 507.485 233.906 512.819C255.132 518.153 268.047 539.826 262.756 561.222L262.756 561.222H262.756Z" fill="#F0EBDF"/>
<path d="M241.799 545.871C242.587 540.556 238.573 537.699 233.084 535.793L234.865 528.594L230.517 527.502L228.784 534.512C227.641 534.225 226.467 533.954 225.301 533.685L227.047 526.629L222.702 525.537L220.921 532.734C219.975 532.517 219.046 532.303 218.145 532.077L218.15 532.054L212.154 530.545L210.998 535.226C210.998 535.226 214.223 535.971 214.155 536.017C215.916 536.46 216.234 537.634 216.181 538.566L214.153 546.767C214.274 546.798 214.431 546.843 214.605 546.913C214.46 546.877 214.306 546.838 214.145 546.799L211.302 558.288C211.087 558.827 210.541 559.637 209.31 559.329C209.354 559.393 206.151 558.534 206.151 558.534L203.992 563.551L209.65 564.973C210.702 565.239 211.734 565.517 212.749 565.779L210.95 573.061L215.293 574.153L217.074 566.948C218.261 567.273 219.412 567.572 220.539 567.854L218.763 575.025L223.111 576.117L224.91 568.849C232.323 570.263 237.897 569.693 240.244 562.934C242.134 557.492 240.149 554.353 236.249 552.306C239.09 551.645 241.23 549.762 241.8 545.871L241.799 545.87L241.799 545.871ZM231.866 559.911C230.522 565.353 221.433 562.412 218.486 561.674L220.873 552.027C223.82 552.768 233.27 554.236 231.866 559.911H231.866ZM233.21 545.792C231.985 550.742 224.419 548.227 221.965 547.611L224.13 538.861C226.584 539.478 234.487 540.629 233.211 545.792H233.21Z" fill="white"/>
<path d="M1142.91 456.509C1163.52 456.509 1180.23 473.218 1180.23 493.827C1180.23 514.438 1163.52 531.144 1142.91 531.144C1122.3 531.144 1105.59 514.437 1105.59 493.827C1105.59 473.218 1122.3 456.509 1142.91 456.509Z" fill="#F0EBDF"/>
<path d="M1144.28 496.462H1158.46C1158.77 496.462 1158.91 496.462 1158.93 496.065C1159.05 494.623 1159.05 493.172 1158.93 491.728C1158.93 491.447 1158.79 491.331 1158.49 491.331H1130.27C1129.92 491.331 1129.82 491.447 1129.82 491.775V495.926C1129.82 496.462 1129.82 496.462 1130.38 496.462H1144.28ZM1157.35 486.48C1157.39 486.374 1157.39 486.258 1157.35 486.154C1157.11 485.639 1156.83 485.147 1156.5 484.685C1156.01 483.895 1155.44 483.168 1154.78 482.515C1154.47 482.12 1154.11 481.766 1153.71 481.466C1151.69 479.748 1149.29 478.532 1146.71 477.921C1145.41 477.628 1144.08 477.489 1142.74 477.501H1130.22C1129.87 477.501 1129.82 477.64 1129.82 477.944V486.223C1129.82 486.572 1129.82 486.666 1130.27 486.666H1157.18C1157.18 486.666 1157.41 486.619 1157.46 486.48H1157.35H1157.35ZM1157.35 501.313C1156.95 501.269 1156.55 501.269 1156.16 501.313H1130.29C1129.94 501.313 1129.82 501.313 1129.82 501.78V509.874C1129.82 510.247 1129.82 510.341 1130.29 510.341H1142.23C1142.8 510.385 1143.37 510.344 1143.93 510.225C1145.67 510.101 1147.37 509.725 1149 509.105C1149.59 508.9 1150.16 508.633 1150.7 508.312H1150.86C1153.66 506.856 1155.93 504.569 1157.37 501.761C1157.37 501.761 1157.53 501.409 1157.35 501.316V501.313ZM1125.14 514.538V514.398V508.964V507.122V501.641C1125.14 501.337 1125.14 501.291 1124.76 501.291H1119.7C1119.42 501.291 1119.31 501.291 1119.31 500.918V496.487H1124.72C1125.02 496.487 1125.14 496.487 1125.14 496.091V491.706C1125.14 491.425 1125.14 491.357 1124.76 491.357H1119.7C1119.42 491.357 1119.31 491.357 1119.31 490.984V486.88C1119.31 486.623 1119.31 486.554 1119.68 486.554H1124.69C1125.04 486.554 1125.14 486.554 1125.14 486.11V473.539C1125.14 473.166 1125.14 473.072 1125.6 473.072H1143.1C1144.37 473.123 1145.63 473.262 1146.87 473.492C1149.44 473.967 1151.92 474.886 1154.17 476.198C1155.67 477.079 1157.05 478.144 1158.28 479.37C1159.2 480.329 1160.03 481.366 1160.77 482.471C1161.51 483.592 1162.12 484.789 1162.6 486.04C1162.65 486.366 1162.97 486.586 1163.29 486.53H1167.47C1168 486.53 1168 486.53 1168.03 487.044V490.87C1168.03 491.242 1167.89 491.336 1167.51 491.336H1164.29C1163.97 491.336 1163.87 491.336 1163.9 491.756C1164.02 493.177 1164.02 494.603 1163.9 496.023C1163.9 496.42 1163.9 496.467 1164.34 496.467H1168.02C1168.19 496.677 1168.02 496.886 1168.02 497.098C1168.05 497.368 1168.05 497.642 1168.02 497.913V500.735C1168.02 501.132 1167.91 501.249 1167.56 501.249H1163.15C1162.84 501.191 1162.54 501.387 1162.47 501.693C1161.42 504.421 1159.74 506.868 1157.57 508.83C1156.78 509.543 1155.95 510.215 1155.08 510.835C1154.15 511.372 1153.24 511.931 1152.28 512.375C1150.52 513.167 1148.67 513.752 1146.77 514.123C1144.97 514.445 1143.15 514.591 1141.32 514.566H1125.13V514.543L1125.14 514.538Z" fill="white"/>
<g clip-path="url(#clip1_200_60)">
<path d="M371.219 119.562C391.166 119.562 407.336 103.193 407.336 83C407.336 62.8071 391.166 46.4375 371.219 46.4375C351.272 46.4375 335.103 62.8071 335.103 83C335.103 103.193 351.272 119.562 371.219 119.562Z" fill="white"/>
<path d="M371.219 42C363.209 42 355.378 44.4046 348.718 48.9097C342.058 53.4149 336.867 59.8182 333.802 67.31C330.736 74.8017 329.934 83.0455 331.497 90.9987C333.06 98.9519 336.917 106.257 342.581 111.991C348.245 117.725 355.461 121.63 363.318 123.212C371.174 124.794 379.317 123.982 386.717 120.879C394.118 117.776 400.443 112.521 404.893 105.778C409.343 99.036 411.719 91.109 411.719 83C411.734 77.6314 410.705 72.3124 408.69 67.3465C406.675 62.3806 403.713 57.8651 399.974 54.0579C396.235 50.2507 391.792 47.2263 386.899 45.1574C382.005 43.0885 376.757 42.0156 371.454 42H371.219ZM371.905 84.3898L367.689 98.7845H390.243C390.392 98.7792 390.541 98.8038 390.681 98.8568C390.821 98.9098 390.95 98.9902 391.059 99.0935C391.168 99.1968 391.256 99.3208 391.318 99.4586C391.38 99.5963 391.415 99.7451 391.42 99.8964V100.274L389.458 107.123C389.372 107.447 389.179 107.732 388.912 107.93C388.645 108.129 388.319 108.229 387.988 108.215H353.469L359.255 88.2615L352.783 90.247L354.254 85.6804L360.726 83.6949L368.865 55.6998C368.955 55.3776 369.148 55.0951 369.415 54.8972C369.681 54.6993 370.006 54.5974 370.336 54.6077H379.064C379.213 54.6024 379.362 54.627 379.502 54.68C379.642 54.733 379.771 54.8135 379.88 54.9167C379.989 55.02 380.077 55.1441 380.139 55.2818C380.201 55.4196 380.236 55.5684 380.241 55.7196V56.0969L373.376 79.724L379.848 77.7385L378.475 82.5036L371.905 84.3898Z" fill="#F0EBDF"/>
</g>
<circle cx="71.6138" cy="203.326" r="39.6138" fill="#F0EBDF"/>
<path d="M71.6082 172.204L53.2109 202.733L71.6082 194.371V172.204Z" fill="white"/>
<path d="M71.6082 194.371L53.2109 202.733L71.6082 213.611V194.371Z" fill="#F7F7F7"/>
<path d="M90.0091 202.733L71.6084 172.204V194.371L90.0091 202.733Z" fill="#F7F7F7"/>
<path d="M71.6084 213.611L90.0091 202.733L71.6084 194.371V213.611Z" fill="white"/>
<path d="M53.2109 206.224L71.6082 232.151V217.094L53.2109 206.224Z" fill="white"/>
<path d="M71.6084 217.094V232.151L90.0193 206.224L71.6084 217.094Z" fill="#F7F7F7"/>
<defs>
<clipPath id="clip0_200_60">
<rect width="105" height="91" fill="white" transform="translate(960 73)"/>
</clipPath>
<clipPath id="clip1_200_60">
<rect width="81" height="82" fill="white" transform="translate(330.719 42)"/>
</clipPath>
</defs>
</svg>
