<svg width="738" height="426" viewBox="0 0 738 426" fill="none" xmlns="http://www.w3.org/2000/svg">
<path d="M20.9688 171.812C20.4165 171.812 19.9688 172.26 19.9688 172.812C19.9688 173.365 20.4165 173.812 20.9688 173.812V171.812ZM300.531 173.812C301.084 173.812 301.531 173.365 301.531 172.812C301.531 172.26 301.084 171.812 300.531 171.812V173.812ZM22.6458 261.67C22.0935 261.67 21.6458 262.118 21.6458 262.67C21.6458 263.223 22.0935 263.67 22.6458 263.67V261.67ZM302.208 263.67C302.761 263.67 303.208 263.223 303.208 262.67C303.208 262.118 302.761 261.67 302.208 261.67V263.67ZM319.5 212.75C319.5 300.425 248.425 371.5 160.75 371.5V373.5C249.53 373.5 321.5 301.53 321.5 212.75H319.5ZM160.75 371.5C73.0748 371.5 2 300.425 2 212.75H0C0 301.53 71.9702 373.5 160.75 373.5V371.5ZM2 212.75C2 125.075 73.0748 54 160.75 54V52C71.9702 52 0 123.97 0 212.75H2ZM160.75 54C248.425 54 319.5 125.075 319.5 212.75H321.5C321.5 123.97 249.53 52 160.75 52V54ZM160.75 371.5C151.431 371.5 142.474 367.187 134.24 359.227C126.002 351.262 118.537 339.689 112.246 325.309C99.6656 296.554 91.8594 256.759 91.8594 212.75H89.8594C89.8594 256.968 97.6987 297.048 110.414 326.111C116.771 340.641 124.366 352.462 132.85 360.665C141.34 368.872 150.769 373.5 160.75 373.5V371.5ZM91.8594 212.75C91.8594 168.741 99.6656 128.946 112.246 100.191C118.537 85.8114 126.002 74.2378 134.24 66.2729C142.474 58.3127 151.431 54 160.75 54V52C150.769 52 141.34 56.6276 132.85 64.835C124.366 73.0377 116.771 84.8589 110.414 99.3889C97.6987 128.452 89.8594 168.532 89.8594 212.75H91.8594ZM160.75 373.5C170.731 373.5 180.16 368.872 188.65 360.665C197.134 352.462 204.729 340.641 211.086 326.111C223.801 297.048 231.641 256.968 231.641 212.75H229.641C229.641 256.759 221.834 296.554 209.254 325.309C202.963 339.689 195.498 351.262 187.26 359.227C179.026 367.187 170.069 371.5 160.75 371.5V373.5ZM231.641 212.75C231.641 168.532 223.801 128.452 211.086 99.3889C204.729 84.8589 197.134 73.0377 188.65 64.835C180.16 56.6276 170.731 52 160.75 52V54C170.069 54 179.026 58.3127 187.26 66.2729C195.498 74.2378 202.963 85.8114 209.254 100.191C221.834 128.946 229.641 168.741 229.641 212.75H231.641ZM20.9688 173.812H300.531V171.812H20.9688V173.812ZM22.6458 263.67H302.208V261.67H22.6458V263.67Z" fill="#CEE8FE"/>
<path d="M436.969 171.812C436.416 171.812 435.969 172.26 435.969 172.812C435.969 173.365 436.416 173.812 436.969 173.812V171.812ZM716.531 173.812C717.084 173.812 717.531 173.365 717.531 172.812C717.531 172.26 717.084 171.812 716.531 171.812V173.812ZM438.646 261.67C438.093 261.67 437.646 262.118 437.646 262.67C437.646 263.223 438.093 263.67 438.646 263.67V261.67ZM718.208 263.67C718.761 263.67 719.208 263.223 719.208 262.67C719.208 262.118 718.761 261.67 718.208 261.67V263.67ZM735.5 212.75C735.5 300.425 664.425 371.5 576.75 371.5V373.5C665.53 373.5 737.5 301.53 737.5 212.75H735.5ZM576.75 371.5C489.075 371.5 418 300.425 418 212.75H416C416 301.53 487.97 373.5 576.75 373.5V371.5ZM418 212.75C418 125.075 489.075 54 576.75 54V52C487.97 52 416 123.97 416 212.75H418ZM576.75 54C664.425 54 735.5 125.075 735.5 212.75H737.5C737.5 123.97 665.53 52 576.75 52V54ZM576.75 371.5C567.431 371.5 558.474 367.187 550.24 359.227C542.002 351.262 534.537 339.689 528.246 325.309C515.666 296.554 507.859 256.759 507.859 212.75H505.859C505.859 256.968 513.699 297.048 526.414 326.111C532.771 340.641 540.366 352.462 548.85 360.665C557.34 368.872 566.769 373.5 576.75 373.5V371.5ZM507.859 212.75C507.859 168.741 515.666 128.946 528.246 100.191C534.537 85.8114 542.002 74.2378 550.24 66.2729C558.474 58.3127 567.431 54 576.75 54V52C566.769 52 557.34 56.6276 548.85 64.835C540.366 73.0377 532.771 84.8589 526.414 99.3889C513.699 128.452 505.859 168.532 505.859 212.75H507.859ZM576.75 373.5C586.731 373.5 596.16 368.872 604.65 360.665C613.134 352.462 620.729 340.641 627.086 326.111C639.801 297.048 647.641 256.968 647.641 212.75H645.641C645.641 256.759 637.834 296.554 625.254 325.309C618.963 339.689 611.498 351.262 603.26 359.227C595.026 367.187 586.069 371.5 576.75 371.5V373.5ZM647.641 212.75C647.641 168.532 639.801 128.452 627.086 99.3889C620.729 84.8589 613.134 73.0377 604.65 64.835C596.16 56.6276 586.731 52 576.75 52V54C586.069 54 595.026 58.3127 603.26 66.2729C611.498 74.2378 618.963 85.8114 625.254 100.191C637.834 128.946 645.641 168.741 645.641 212.75H647.641ZM436.969 173.812H716.531V171.812H436.969V173.812ZM438.646 263.67H718.208V261.67H438.646V263.67Z" fill="#CEE8FE"/>
<path d="M229.219 172.062C228.666 172.062 228.219 172.51 228.219 173.062C228.219 173.615 228.666 174.062 229.219 174.062V172.062ZM508.781 174.062C509.334 174.062 509.781 173.615 509.781 173.062C509.781 172.51 509.334 172.062 508.781 172.062V174.062ZM230.896 261.92C230.343 261.92 229.896 262.368 229.896 262.92C229.896 263.473 230.343 263.92 230.896 263.92V261.92ZM510.458 263.92C511.011 263.92 511.458 263.473 511.458 262.92C511.458 262.368 511.011 261.92 510.458 261.92V263.92ZM527.75 213C527.75 300.675 456.675 371.75 369 371.75V373.75C457.78 373.75 529.75 301.78 529.75 213H527.75ZM369 371.75C281.325 371.75 210.25 300.675 210.25 213H208.25C208.25 301.78 280.22 373.75 369 373.75V371.75ZM210.25 213C210.25 125.325 281.325 54.25 369 54.25V52.25C280.22 52.25 208.25 124.22 208.25 213H210.25ZM369 54.25C456.675 54.25 527.75 125.325 527.75 213H529.75C529.75 124.22 457.78 52.25 369 52.25V54.25ZM369 371.75C359.681 371.75 350.724 367.437 342.49 359.477C334.252 351.512 326.787 339.939 320.496 325.559C307.916 296.804 300.109 257.009 300.109 213H298.109C298.109 257.218 305.949 297.298 318.664 326.361C325.021 340.891 332.616 352.712 341.1 360.915C349.59 369.122 359.019 373.75 369 373.75V371.75ZM300.109 213C300.109 168.991 307.916 129.196 320.496 100.441C326.787 86.0614 334.252 74.4878 342.49 66.5229C350.724 58.5627 359.681 54.25 369 54.25V52.25C359.019 52.25 349.59 56.8776 341.1 65.085C332.616 73.2877 325.021 85.1089 318.664 99.6389C305.949 128.702 298.109 168.782 298.109 213H300.109ZM369 373.75C378.981 373.75 388.41 369.122 396.9 360.915C405.384 352.712 412.979 340.891 419.336 326.361C432.051 297.298 439.891 257.218 439.891 213H437.891C437.891 257.009 430.084 296.804 417.504 325.559C411.213 339.939 403.748 351.512 395.51 359.477C387.276 367.437 378.319 371.75 369 371.75V373.75ZM439.891 213C439.891 168.782 432.051 128.702 419.336 99.6389C412.979 85.1089 405.384 73.2877 396.9 65.085C388.41 56.8776 378.981 52.25 369 52.25V54.25C378.319 54.25 387.276 58.5627 395.51 66.5229C403.748 74.4878 411.213 86.0614 417.504 100.441C430.084 129.196 437.891 168.991 437.891 213H439.891ZM229.219 174.062H508.781V172.062H229.219V174.062ZM230.896 263.92H510.458V261.92H230.896V263.92Z" fill="#6FC2FB"/>
</svg>
