<svg width="937" height="299" viewBox="0 0 937 299" fill="none" xmlns="http://www.w3.org/2000/svg">
<path d="M32.0898 10.4951L470.238 10.4951" stroke="#E6E4DE" stroke-width="2"/>
<line x1="105.069" y1="104.974" x2="469.576" y2="10.35" stroke="#E6E4DE" stroke-width="2"/>
<line x1="219.086" y1="199.77" x2="467.575" y2="10.5224" stroke="#E6E4DE" stroke-width="2"/>
<line x1="352.907" y1="250.326" x2="467.278" y2="10.8869" stroke="#E6E4DE" stroke-width="2"/>
<line x1="467.181" y1="267.213" x2="467.181" y2="10.4951" stroke="#E6E4DE" stroke-width="2"/>
<path fill-rule="evenodd" clip-rule="evenodd" d="M16.532 5.55822C16.532 8.28479 14.3217 10.4951 11.5951 10.4951C8.86856 10.4951 6.65824 8.28479 6.65824 5.55822C6.65824 2.83166 8.86856 0.621338 11.5951 0.621338C14.3217 0.621338 16.532 2.83166 16.532 5.55822ZM14.8864 5.55822C14.8864 7.37593 13.4128 8.84948 11.5951 8.84948C9.77742 8.84948 8.30387 7.37593 8.30387 5.55822C8.30387 3.74051 9.77742 2.26697 11.5951 2.26697C13.4128 2.26697 14.8864 3.74051 14.8864 5.55822Z" fill="#F8F6EF"/>
<path d="M11.5951 12.9635C6.26791 12.9635 1.72899 16.1136 0 20.5269C0.421194 20.9451 0.864891 21.3407 1.32911 21.7117C2.61661 17.6599 6.65554 14.6092 11.5951 14.6092C16.5347 14.6092 20.5737 17.6599 21.8611 21.7118C22.3254 21.3408 22.7691 20.9451 23.1903 20.5269C21.4613 16.1136 16.9223 12.9635 11.5951 12.9635Z" fill="#F8F6EF"/>
<path fill-rule="evenodd" clip-rule="evenodd" d="M88.117 103.473C88.117 106.2 85.9067 108.41 83.1801 108.41C80.4535 108.41 78.2432 106.2 78.2432 103.473C78.2432 100.746 80.4535 98.5361 83.1801 98.5361C85.9067 98.5361 88.117 100.746 88.117 103.473ZM86.4713 103.473C86.4713 105.291 84.9978 106.764 83.1801 106.764C81.3624 106.764 79.8888 105.291 79.8888 103.473C79.8888 101.655 81.3624 100.182 83.1801 100.182C84.9978 100.182 86.4713 101.655 86.4713 103.473Z" fill="#F8F6EF"/>
<path d="M83.1801 110.878C77.8529 110.878 73.314 114.028 71.585 118.442C72.0062 118.86 72.4499 119.256 72.9141 119.627C74.2016 115.575 78.2405 112.524 83.1801 112.524C88.1197 112.524 92.1586 115.575 93.4461 119.627C93.9103 119.256 94.354 118.86 94.7752 118.442C93.0462 114.028 88.5073 110.878 83.1801 110.878Z" fill="#F8F6EF"/>
<path fill-rule="evenodd" clip-rule="evenodd" d="M203.31 203.856C203.31 206.583 201.1 208.793 198.373 208.793C195.647 208.793 193.437 206.583 193.437 203.856C193.437 201.13 195.647 198.919 198.373 198.919C201.1 198.919 203.31 201.13 203.31 203.856ZM201.665 203.856C201.665 205.674 200.191 207.148 198.373 207.148C196.556 207.148 195.082 205.674 195.082 203.856C195.082 202.039 196.556 200.565 198.373 200.565C200.191 200.565 201.665 202.039 201.665 203.856Z" fill="#F8F6EF"/>
<path d="M198.373 211.262C193.046 211.262 188.507 214.412 186.778 218.825C187.2 219.243 187.643 219.639 188.107 220.01C189.395 215.958 193.434 212.907 198.373 212.907C203.313 212.907 207.352 215.958 208.639 220.01C209.104 219.639 209.547 219.243 209.969 218.825C208.24 214.412 203.701 211.262 198.373 211.262Z" fill="#F8F6EF"/>
<path fill-rule="evenodd" clip-rule="evenodd" d="M343.532 261.937C343.532 264.663 341.322 266.874 338.595 266.874C335.869 266.874 333.658 264.663 333.658 261.937C333.658 259.21 335.869 257 338.595 257C341.322 257 343.532 259.21 343.532 261.937ZM341.886 261.937C341.886 263.755 340.413 265.228 338.595 265.228C336.777 265.228 335.304 263.755 335.304 261.937C335.304 260.119 336.777 258.646 338.595 258.646C340.413 258.646 341.886 260.119 341.886 261.937Z" fill="#F8F6EF"/>
<path d="M338.595 269.342C333.268 269.342 328.729 272.492 327 276.906C327.421 277.324 327.865 277.719 328.329 278.09C329.617 274.039 333.656 270.988 338.595 270.988C343.535 270.988 347.574 274.039 348.861 278.09C349.325 277.719 349.769 277.324 350.19 276.906C348.461 272.492 343.922 269.342 338.595 269.342Z" fill="#F8F6EF"/>
<path d="M904.272 10.4951L469.415 10.4951" stroke="#E6E4DE" stroke-width="2"/>
<line x1="830.644" y1="107.452" x2="467.926" y2="11.4618" stroke="#E6E4DE" stroke-width="2"/>
<line x1="716.065" y1="201.361" x2="467.575" y2="12.1135" stroke="#E6E4DE" stroke-width="2"/>
<line x1="584.12" y1="253.66" x2="467.28" y2="11.7529" stroke="#E6E4DE" stroke-width="2"/>
<path fill-rule="evenodd" clip-rule="evenodd" d="M919.83 5.55822C919.83 8.28479 922.041 10.4951 924.767 10.4951C927.494 10.4951 929.704 8.28479 929.704 5.55822C929.704 2.83166 927.494 0.621338 924.767 0.621338C922.041 0.621338 919.83 2.83166 919.83 5.55822ZM921.476 5.55822C921.476 7.37593 922.949 8.84948 924.767 8.84948C926.585 8.84948 928.058 7.37593 928.058 5.55822C928.058 3.74051 926.585 2.26697 924.767 2.26697C922.949 2.26697 921.476 3.74051 921.476 5.55822Z" fill="#F8F6EF"/>
<path d="M924.767 12.9635C930.094 12.9635 934.633 16.1136 936.362 20.5269C935.941 20.9451 935.497 21.3407 935.033 21.7117C933.746 17.6599 929.707 14.6092 924.767 14.6092C919.828 14.6092 915.789 17.6599 914.501 21.7118C914.037 21.3408 913.593 20.9451 913.172 20.5269C914.901 16.1136 919.44 12.9635 924.767 12.9635Z" fill="#F8F6EF"/>
<path fill-rule="evenodd" clip-rule="evenodd" d="M848.245 103.473C848.245 106.2 850.456 108.41 853.182 108.41C855.909 108.41 858.119 106.2 858.119 103.473C858.119 100.746 855.909 98.5361 853.182 98.5361C850.456 98.5361 848.245 100.746 848.245 103.473ZM849.891 103.473C849.891 105.291 851.365 106.764 853.182 106.764C855 106.764 856.473 105.291 856.473 103.473C856.473 101.655 855 100.182 853.182 100.182C851.365 100.182 849.891 101.655 849.891 103.473Z" fill="#F8F6EF"/>
<path d="M853.182 110.878C858.509 110.878 863.048 114.028 864.777 118.442C864.356 118.86 863.912 119.256 863.448 119.627C862.161 115.575 858.122 112.524 853.182 112.524C848.243 112.524 844.204 115.575 842.916 119.627C842.452 119.256 842.008 118.86 841.587 118.442C843.316 114.028 847.855 110.878 853.182 110.878Z" fill="#F8F6EF"/>
<path fill-rule="evenodd" clip-rule="evenodd" d="M733.051 203.856C733.051 206.583 735.261 208.793 737.988 208.793C740.714 208.793 742.925 206.583 742.925 203.856C742.925 201.13 740.714 198.919 737.988 198.919C735.261 198.919 733.051 201.13 733.051 203.856ZM734.697 203.856C734.697 205.674 736.17 207.148 737.988 207.148C739.806 207.148 741.279 205.674 741.279 203.856C741.279 202.039 739.806 200.565 737.988 200.565C736.17 200.565 734.697 202.039 734.697 203.856Z" fill="#F8F6EF"/>
<path d="M737.988 211.262C743.315 211.262 747.854 214.412 749.583 218.825C749.162 219.243 748.718 219.639 748.254 220.01C746.966 215.958 742.927 212.907 737.988 212.907C733.048 212.907 729.009 215.958 727.722 220.01C727.258 219.639 726.814 219.243 726.393 218.825C728.122 214.412 732.661 211.262 737.988 211.262Z" fill="#F8F6EF"/>
<path fill-rule="evenodd" clip-rule="evenodd" d="M593.173 261.453C593.173 264.18 595.383 266.39 598.11 266.39C600.837 266.39 603.047 264.18 603.047 261.453C603.047 258.727 600.837 256.516 598.11 256.516C595.383 256.516 593.173 258.727 593.173 261.453ZM594.819 261.453C594.819 263.271 596.292 264.745 598.11 264.745C599.928 264.745 601.401 263.271 601.401 261.453C601.401 259.636 599.928 258.162 598.11 258.162C596.292 258.162 594.819 259.636 594.819 261.453Z" fill="#F8F6EF"/>
<path d="M598.11 268.859C603.437 268.859 607.976 272.009 609.705 276.422C609.284 276.84 608.84 277.236 608.376 277.607C607.088 273.555 603.05 270.504 598.11 270.504C593.17 270.504 589.131 273.555 587.844 277.607C587.38 277.236 586.936 276.84 586.515 276.422C588.244 272.009 592.783 268.859 598.11 268.859Z" fill="#F8F6EF"/>
<path fill-rule="evenodd" clip-rule="evenodd" d="M473.194 282.846C473.194 285.573 470.984 287.783 468.257 287.783C465.531 287.783 463.32 285.573 463.32 282.846C463.32 280.12 465.531 277.91 468.257 277.91C470.984 277.91 473.194 280.12 473.194 282.846ZM471.548 282.846C471.548 284.664 470.075 286.138 468.257 286.138C466.44 286.138 464.966 284.664 464.966 282.846C464.966 281.029 466.44 279.555 468.257 279.555C470.075 279.555 471.548 281.029 471.548 282.846Z" fill="#F8F6EF"/>
<path d="M468.257 290.252C462.93 290.252 458.391 293.402 456.662 297.815C457.083 298.233 457.527 298.629 457.991 299C459.279 294.948 463.318 291.897 468.257 291.897C473.197 291.897 477.236 294.948 478.523 299C478.987 298.629 479.431 298.233 479.852 297.815C478.123 293.402 473.584 290.252 468.257 290.252Z" fill="#F8F6EF"/>
</svg>
