<svg width="267" height="68" viewBox="0 0 267 68" fill="none" xmlns="http://www.w3.org/2000/svg">
<path d="M69.4401 48.028V18.7847H72.9813V44.8867H86.5748V48.028H69.4401Z" fill="#312319"/>
<path d="M91.601 48.028V26.0956H94.9708V48.028H91.601ZM93.3145 22.4402C92.6577 22.4402 92.0913 22.2164 91.6153 21.769C91.1488 21.3216 90.9156 20.7838 90.9156 20.1555C90.9156 19.5272 91.1488 18.9894 91.6153 18.542C92.0913 18.0946 92.6577 17.8709 93.3145 17.8709C93.9713 17.8709 94.533 18.0946 94.9994 18.542C95.4754 18.9894 95.7133 19.5272 95.7133 20.1555C95.7133 20.7838 95.4754 21.3216 94.9994 21.769C94.533 22.2164 93.9713 22.4402 93.3145 22.4402Z" fill="#312319"/>
<path d="M104.513 34.8343V48.028H101.143V26.0956H104.399V29.5225H104.684C105.198 28.4087 105.979 27.5139 107.026 26.8381C108.073 26.1527 109.425 25.81 111.081 25.81C112.566 25.81 113.865 26.1146 114.979 26.7238C116.093 27.3235 116.959 28.2374 117.578 29.4654C118.197 30.6839 118.506 32.226 118.506 34.0918V48.028H115.136V34.3202C115.136 32.5972 114.689 31.255 113.794 30.2936C112.899 29.3226 111.671 28.8371 110.11 28.8371C109.034 28.8371 108.073 29.0703 107.226 29.5368C106.388 30.0032 105.726 30.6839 105.241 31.5787C104.755 32.4735 104.513 33.5587 104.513 34.8343Z" fill="#312319"/>
<path d="M127.805 40.0318L127.748 35.8624H128.434L138.029 26.0956H142.198L131.975 36.4335H131.689L127.805 40.0318ZM124.664 48.028V18.7847H128.034V48.028H124.664ZM138.6 48.028L130.033 37.176L132.432 34.8343L142.884 48.028H138.6Z" fill="#312319"/>
<path d="M148.192 18.7847L156.874 43.4016H157.216L165.898 18.7847H169.61L158.873 48.028H155.217L144.48 18.7847H148.192Z" fill="#312319"/>
<path d="M180.577 48.4849C178.597 48.4849 176.859 48.0137 175.365 47.0713C173.88 46.1289 172.718 44.8105 171.881 43.1161C171.053 41.4216 170.639 39.4416 170.639 37.176C170.639 34.8914 171.053 32.8971 171.881 31.1931C172.718 29.4892 173.88 28.166 175.365 27.2236C176.859 26.2812 178.597 25.81 180.577 25.81C182.557 25.81 184.289 26.2812 185.774 27.2236C187.269 28.166 188.43 29.4892 189.258 31.1931C190.096 32.8971 190.515 34.8914 190.515 37.176C190.515 39.4416 190.096 41.4216 189.258 43.1161C188.43 44.8105 187.269 46.1289 185.774 47.0713C184.289 48.0137 182.557 48.4849 180.577 48.4849ZM180.577 45.4578C182.081 45.4578 183.318 45.0723 184.289 44.3012C185.26 43.5301 185.979 42.5163 186.445 41.2598C186.912 40.0033 187.145 38.642 187.145 37.176C187.145 35.7101 186.912 34.344 186.445 33.078C185.979 31.8119 185.26 30.7886 184.289 30.008C183.318 29.2274 182.081 28.8371 180.577 28.8371C179.073 28.8371 177.835 29.2274 176.864 30.008C175.893 30.7886 175.174 31.8119 174.708 33.078C174.242 34.344 174.008 35.7101 174.008 37.176C174.008 38.642 174.242 40.0033 174.708 41.2598C175.174 42.5163 175.893 43.5301 176.864 44.3012C177.835 45.0723 179.073 45.4578 180.577 45.4578Z" fill="#312319"/>
<path d="M195.659 48.028V26.0956H199.029V48.028H195.659ZM197.372 22.4402C196.715 22.4402 196.149 22.2164 195.673 21.769C195.207 21.3216 194.973 20.7838 194.973 20.1555C194.973 19.5272 195.207 18.9894 195.673 18.542C196.149 18.0946 196.715 17.8709 197.372 17.8709C198.029 17.8709 198.591 18.0946 199.057 18.542C199.533 18.9894 199.771 19.5272 199.771 20.1555C199.771 20.7838 199.533 21.3216 199.057 21.769C198.591 22.2164 198.029 22.4402 197.372 22.4402Z" fill="#312319"/>
<path d="M214.111 48.4849C212.055 48.4849 210.284 47.9995 208.799 47.0285C207.314 46.0575 206.172 44.7201 205.372 43.0161C204.572 41.3122 204.173 39.3655 204.173 37.176C204.173 34.9485 204.582 32.9828 205.401 31.2788C206.229 29.5653 207.381 28.2279 208.856 27.2664C210.341 26.2955 212.074 25.81 214.054 25.81C215.596 25.81 216.986 26.0956 218.223 26.6667C219.461 27.2379 220.474 28.0375 221.265 29.0656C222.055 30.0937 222.545 31.2931 222.735 32.6639H219.365C219.108 31.6643 218.537 30.7791 217.652 30.008C216.776 29.2274 215.596 28.8371 214.111 28.8371C212.797 28.8371 211.645 29.1798 210.655 29.8652C209.675 30.5411 208.908 31.4978 208.356 32.7353C207.814 33.9633 207.542 35.4054 207.542 37.0618C207.542 38.7562 207.809 40.2317 208.342 41.4883C208.885 42.7448 209.646 43.7205 210.627 44.4154C211.617 45.1104 212.778 45.4578 214.111 45.4578C214.987 45.4578 215.781 45.3055 216.495 45.0009C217.209 44.6963 217.814 44.2584 218.309 43.6872C218.804 43.1161 219.156 42.4307 219.365 41.6311H222.735C222.545 42.9257 222.074 44.0918 221.322 45.1294C220.579 46.1575 219.594 46.9761 218.366 47.5854C217.147 48.1851 215.729 48.4849 214.111 48.4849Z" fill="#312319"/>
<path d="M236.857 48.4849C234.744 48.4849 232.921 48.0185 231.388 47.0856C229.865 46.1432 228.69 44.8295 227.861 43.1446C227.043 41.4502 226.633 39.4797 226.633 37.2331C226.633 34.9866 227.043 33.0066 227.861 31.2931C228.69 29.5701 229.841 28.2279 231.317 27.2664C232.802 26.2955 234.534 25.81 236.514 25.81C237.657 25.81 238.785 26.0004 239.899 26.3811C241.012 26.7619 242.026 27.3807 242.94 28.2374C243.854 29.0846 244.582 30.2079 245.125 31.6072C245.667 33.0066 245.939 34.7296 245.939 36.7762V38.2041H229.032V35.2912H242.512C242.512 34.0537 242.264 32.9495 241.769 31.9785C241.284 31.0075 240.589 30.2412 239.684 29.6796C238.79 29.1179 237.733 28.8371 236.514 28.8371C235.172 28.8371 234.011 29.1703 233.03 29.8366C232.059 30.4935 231.312 31.3502 230.789 32.4069C230.265 33.4635 230.003 34.5963 230.003 35.8052V37.7472C230.003 39.4035 230.289 40.8076 230.86 41.9595C231.441 43.1018 232.245 43.9728 233.273 44.5725C234.301 45.1627 235.496 45.4578 236.857 45.4578C237.742 45.4578 238.542 45.3341 239.256 45.0866C239.979 44.8295 240.603 44.4488 241.127 43.9442C241.65 43.4302 242.055 42.7924 242.34 42.0309L245.596 42.9447C245.253 44.049 244.677 45.0199 243.868 45.8576C243.059 46.6858 242.059 47.3331 240.87 47.7996C239.68 48.2565 238.342 48.4849 236.857 48.4849Z" fill="#312319"/>
<path d="M266.6 31.0075L263.573 31.8643C263.383 31.3597 263.102 30.8695 262.731 30.3935C262.369 29.908 261.874 29.5082 261.246 29.1941C260.617 28.88 259.813 28.7229 258.832 28.7229C257.49 28.7229 256.372 29.0323 255.477 29.651C254.592 30.2603 254.149 31.0361 254.149 31.9785C254.149 32.8162 254.454 33.4778 255.063 33.9633C255.672 34.4487 256.624 34.8533 257.919 35.177L261.174 35.9766C263.135 36.4526 264.596 37.1808 265.558 38.1613C266.519 39.1322 267 40.384 267 41.9166C267 43.1732 266.638 44.2965 265.915 45.2865C265.201 46.2765 264.201 47.057 262.916 47.6282C261.631 48.1994 260.137 48.4849 258.433 48.4849C256.196 48.4849 254.344 47.9995 252.878 47.0285C251.412 46.0575 250.484 44.6391 250.094 42.7734L253.292 41.9737C253.597 43.1541 254.173 44.0394 255.02 44.6296C255.877 45.2198 256.995 45.5149 258.376 45.5149C259.946 45.5149 261.193 45.1817 262.117 44.5154C263.049 43.8395 263.516 43.0304 263.516 42.088C263.516 41.3264 263.249 40.6886 262.716 40.1746C262.183 39.651 261.365 39.2607 260.26 39.0037L256.605 38.147C254.596 37.671 253.121 36.9333 252.178 35.9338C251.246 34.9247 250.779 33.6634 250.779 32.1498C250.779 30.9123 251.127 29.8176 251.821 28.8657C252.526 27.9137 253.483 27.1665 254.692 26.6239C255.91 26.0813 257.29 25.81 258.832 25.81C261.003 25.81 262.707 26.2859 263.944 27.2379C265.191 28.1898 266.077 29.4464 266.6 31.0075Z" fill="#312319"/>
<path d="M8.93545 8.93544H58.0804V58.0804H8.93545V8.93544Z" fill="#312319"/>
<path d="M33.5079 0L35.4314 28.8643L57.2016 9.81424L38.1515 31.5845L67.0158 33.5079L38.1515 35.4314L57.2016 57.2016L35.4314 38.1515L33.5079 67.0158L31.5845 38.1515L9.81424 57.2016L28.8643 35.4314L0 33.5079L28.8643 31.5845L9.81424 9.81424L31.5845 28.8643L33.5079 0Z" fill="white"/>
</svg>
