<svg width="208" height="44" viewBox="0 0 208 44" fill="none" xmlns="http://www.w3.org/2000/svg">
<g clip-path="url(#clip0_116_21)">
<rect width="208" height="44" fill="white"/>
<path d="M53.8181 33V9.72727H56.6363V30.5H67.4545V33H53.8181Z" fill="black"/>
<path d="M71.4545 33V15.5455H74.1363V33H71.4545ZM72.8181 12.6364C72.2954 12.6364 71.8446 12.4583 71.4658 12.1023C71.0946 11.7462 70.909 11.3182 70.909 10.8182C70.909 10.3182 71.0946 9.89015 71.4658 9.53409C71.8446 9.17803 72.2954 9 72.8181 9C73.3408 9 73.7878 9.17803 74.159 9.53409C74.5378 9.89015 74.7272 10.3182 74.7272 10.8182C74.7272 11.3182 74.5378 11.7462 74.159 12.1023C73.7878 12.4583 73.3408 12.6364 72.8181 12.6364Z" fill="black"/>
<path d="M81.73 22.5V33H79.0482V15.5455H81.6391V18.2727H81.8664C82.2755 17.3864 82.8967 16.6742 83.73 16.1364C84.5634 15.5909 85.6391 15.3182 86.9573 15.3182C88.1391 15.3182 89.1732 15.5606 90.0596 16.0455C90.946 16.5227 91.6353 17.25 92.1278 18.2273C92.6202 19.197 92.8664 20.4242 92.8664 21.9091V33H90.1846V22.0909C90.1846 20.7197 89.8285 19.6515 89.1164 18.8864C88.4043 18.1136 87.427 17.7273 86.1846 17.7273C85.3285 17.7273 84.5634 17.9129 83.8891 18.2841C83.2225 18.6553 82.696 19.197 82.3096 19.9091C81.9232 20.6212 81.73 21.4848 81.73 22.5Z" fill="black"/>
<path d="M100.267 26.6364L100.222 23.3182H100.767L108.403 15.5455H111.722L103.585 23.7727H103.358L100.267 26.6364ZM97.767 33V9.72727H100.449V33H97.767ZM108.858 33L102.04 24.3636L103.949 22.5L112.267 33H108.858Z" fill="black"/>
<path d="M129.446 15.5455L122.991 33H120.264L113.81 15.5455H116.719L121.537 29.4545H121.719L126.537 15.5455H129.446Z" fill="black"/>
<path d="M139.452 33.3636C137.876 33.3636 136.493 32.9886 135.304 32.2386C134.122 31.4886 133.198 30.4394 132.531 29.0909C131.872 27.7424 131.543 26.1667 131.543 24.3636C131.543 22.5455 131.872 20.9583 132.531 19.6023C133.198 18.2462 134.122 17.1932 135.304 16.4432C136.493 15.6932 137.876 15.3182 139.452 15.3182C141.027 15.3182 142.406 15.6932 143.588 16.4432C144.777 17.1932 145.702 18.2462 146.361 19.6023C147.027 20.9583 147.361 22.5455 147.361 24.3636C147.361 26.1667 147.027 27.7424 146.361 29.0909C145.702 30.4394 144.777 31.4886 143.588 32.2386C142.406 32.9886 141.027 33.3636 139.452 33.3636ZM139.452 30.9545C140.649 30.9545 141.633 30.6477 142.406 30.0341C143.179 29.4205 143.751 28.6136 144.122 27.6136C144.493 26.6136 144.679 25.5303 144.679 24.3636C144.679 23.197 144.493 22.1098 144.122 21.1023C143.751 20.0947 143.179 19.2803 142.406 18.6591C141.633 18.0379 140.649 17.7273 139.452 17.7273C138.255 17.7273 137.27 18.0379 136.497 18.6591C135.724 19.2803 135.152 20.0947 134.781 21.1023C134.41 22.1098 134.224 23.197 134.224 24.3636C134.224 25.5303 134.41 26.6136 134.781 27.6136C135.152 28.6136 135.724 29.4205 136.497 30.0341C137.27 30.6477 138.255 30.9545 139.452 30.9545Z" fill="black"/>
<path d="M151.454 33V15.5455H154.136V33H151.454ZM152.818 12.6364C152.295 12.6364 151.845 12.4583 151.466 12.1023C151.095 11.7462 150.909 11.3182 150.909 10.8182C150.909 10.3182 151.095 9.89015 151.466 9.53409C151.845 9.17803 152.295 9 152.818 9C153.341 9 153.788 9.17803 154.159 9.53409C154.538 9.89015 154.727 10.3182 154.727 10.8182C154.727 11.3182 154.538 11.7462 154.159 12.1023C153.788 12.4583 153.341 12.6364 152.818 12.6364Z" fill="black"/>
<path d="M166.139 33.3636C164.503 33.3636 163.094 32.9773 161.912 32.2045C160.73 31.4318 159.821 30.3674 159.185 29.0114C158.548 27.6553 158.23 26.1061 158.23 24.3636C158.23 22.5909 158.556 21.0265 159.207 19.6705C159.866 18.3068 160.783 17.2424 161.957 16.4773C163.139 15.7045 164.518 15.3182 166.094 15.3182C167.321 15.3182 168.427 15.5455 169.412 16C170.397 16.4545 171.204 17.0909 171.832 17.9091C172.461 18.7273 172.851 19.6818 173.003 20.7727H170.321C170.116 19.9773 169.662 19.2727 168.957 18.6591C168.26 18.0379 167.321 17.7273 166.139 17.7273C165.094 17.7273 164.177 18 163.389 18.5455C162.609 19.0833 161.999 19.8447 161.56 20.8295C161.128 21.8068 160.912 22.9545 160.912 24.2727C160.912 25.6212 161.124 26.7955 161.548 27.7955C161.98 28.7955 162.586 29.572 163.366 30.125C164.154 30.678 165.079 30.9545 166.139 30.9545C166.836 30.9545 167.469 30.8333 168.037 30.5909C168.605 30.3485 169.086 30 169.48 29.5455C169.874 29.0909 170.154 28.5455 170.321 27.9091H173.003C172.851 28.9394 172.476 29.8674 171.878 30.6932C171.287 31.5114 170.503 32.1629 169.526 32.6477C168.556 33.125 167.427 33.3636 166.139 33.3636Z" fill="black"/>
<path d="M184.241 33.3636C182.56 33.3636 181.109 32.9924 179.889 32.25C178.677 31.5 177.741 30.4545 177.082 29.1136C176.431 27.7652 176.105 26.197 176.105 24.4091C176.105 22.6212 176.431 21.0455 177.082 19.6818C177.741 18.3106 178.658 17.2424 179.832 16.4773C181.014 15.7045 182.393 15.3182 183.969 15.3182C184.878 15.3182 185.776 15.4697 186.662 15.7727C187.548 16.0758 188.355 16.5682 189.082 17.25C189.81 17.9242 190.389 18.8182 190.821 19.9318C191.253 21.0455 191.469 22.4167 191.469 24.0455V25.1818H178.014V22.8636H188.741C188.741 21.8788 188.544 21 188.15 20.2273C187.764 19.4545 187.211 18.8447 186.491 18.3977C185.779 17.9508 184.938 17.7273 183.969 17.7273C182.901 17.7273 181.976 17.9924 181.196 18.5227C180.423 19.0455 179.829 19.7273 179.412 20.5682C178.995 21.4091 178.787 22.3106 178.787 23.2727V24.8182C178.787 26.1364 179.014 27.2538 179.469 28.1705C179.931 29.0795 180.571 29.7727 181.389 30.25C182.207 30.7197 183.158 30.9545 184.241 30.9545C184.946 30.9545 185.582 30.8561 186.15 30.6591C186.726 30.4545 187.222 30.1515 187.639 29.75C188.056 29.3409 188.378 28.8333 188.605 28.2273L191.196 28.9545C190.923 29.8333 190.465 30.6061 189.821 31.2727C189.177 31.9318 188.382 32.447 187.435 32.8182C186.488 33.1818 185.423 33.3636 184.241 33.3636Z" fill="black"/>
<path d="M207.912 19.4545L205.503 20.1364C205.351 19.7348 205.128 19.3447 204.832 18.9659C204.544 18.5795 204.15 18.2614 203.65 18.0114C203.15 17.7614 202.51 17.6364 201.73 17.6364C200.662 17.6364 199.772 17.8826 199.06 18.375C198.355 18.8598 198.003 19.4773 198.003 20.2273C198.003 20.8939 198.245 21.4205 198.73 21.8068C199.215 22.1932 199.972 22.5152 201.003 22.7727L203.594 23.4091C205.154 23.7879 206.317 24.3674 207.082 25.1477C207.847 25.9205 208.23 26.9167 208.23 28.1364C208.23 29.1364 207.942 30.0303 207.366 30.8182C206.798 31.6061 206.003 32.2273 204.98 32.6818C203.957 33.1364 202.768 33.3636 201.412 33.3636C199.632 33.3636 198.158 32.9773 196.991 32.2045C195.825 31.4318 195.086 30.303 194.775 28.8182L197.321 28.1818C197.563 29.1212 198.022 29.8258 198.696 30.2955C199.378 30.7652 200.268 31 201.366 31C202.616 31 203.609 30.7348 204.344 30.2045C205.086 29.6667 205.457 29.0227 205.457 28.2727C205.457 27.6667 205.245 27.1591 204.821 26.75C204.397 26.3333 203.745 26.0227 202.866 25.8182L199.957 25.1364C198.359 24.7576 197.185 24.1705 196.435 23.375C195.692 22.572 195.321 21.5682 195.321 20.3636C195.321 19.3788 195.597 18.5076 196.15 17.75C196.711 16.9924 197.472 16.3977 198.435 15.9659C199.404 15.5341 200.503 15.3182 201.73 15.3182C203.457 15.3182 204.813 15.697 205.798 16.4545C206.791 17.2121 207.495 18.2121 207.912 19.4545Z" fill="black"/>
<rect x="-1" width="44" height="44" fill="black"/>
<path d="M21 -8L22.7221 17.8425L42.2132 0.786797L25.1575 20.2779L51 22L25.1575 23.7221L42.2132 43.2132L22.7221 26.1575L21 52L19.2779 26.1575L-0.213203 43.2132L16.8425 23.7221L-9 22L16.8425 20.2779L-0.213203 0.786797L19.2779 17.8425L21 -8Z" fill="white"/>
</g>
<defs>
<clipPath id="clip0_116_21">
<rect width="208" height="44" fill="white"/>
</clipPath>
</defs>
</svg>
