<svg width="43" height="42" viewBox="0 0 43 42" fill="none" xmlns="http://www.w3.org/2000/svg">
<g clip-path="url(#clip0_242_83)">
<path d="M21.4625 39.7271C31.8052 39.7271 40.1896 31.3427 40.1896 21C40.1896 10.6573 31.8052 2.27288 21.4625 2.27288C11.1198 2.27288 2.73535 10.6573 2.73535 21C2.73535 31.3427 11.1198 39.7271 21.4625 39.7271Z" fill="white"/>
<path d="M21.4629 0C17.3095 0 13.2494 1.23163 9.79593 3.53914C6.34249 5.84665 3.65087 9.1264 2.06143 12.9636C0.47199 16.8009 0.0561196 21.0233 0.866409 25.0969C1.6767 29.1705 3.67676 32.9123 6.61366 35.8492C9.55056 38.7861 13.2924 40.7862 17.366 41.5965C21.4396 42.4068 25.662 41.9909 29.4993 40.4015C33.3365 38.812 36.6163 36.1204 38.9238 32.667C41.2313 29.2135 42.4629 25.1534 42.4629 21C42.4709 18.2502 41.9373 15.5258 40.8924 12.9823C39.8475 10.4388 38.3119 8.12604 36.3732 6.17601C34.4345 4.22597 32.1307 2.67689 29.5933 1.61721C27.0559 0.55753 24.3347 0.00800119 21.5849 0H21.4629ZM21.8188 21.7119L19.6324 29.0847H31.3273C31.4048 29.082 31.482 29.0946 31.5546 29.1218C31.6272 29.1489 31.6938 29.1901 31.7504 29.243C31.8071 29.2959 31.8528 29.3594 31.8849 29.43C31.917 29.5006 31.9349 29.5768 31.9375 29.6542V29.8475L30.9205 33.3559C30.8757 33.5218 30.7758 33.6676 30.6372 33.7692C30.4986 33.8709 30.3295 33.9224 30.1578 33.9152H12.2595L15.2595 23.6949L11.9036 24.7119L12.6663 22.3729L16.0222 21.3559L20.2426 7.01695C20.289 6.85196 20.3893 6.70727 20.5276 6.6059C20.6658 6.50454 20.834 6.45235 21.0053 6.45763H25.5307C25.6082 6.45491 25.6854 6.46749 25.758 6.49465C25.8306 6.5218 25.8972 6.563 25.9538 6.6159C26.0105 6.66879 26.0562 6.73233 26.0883 6.80289C26.1204 6.87345 26.1382 6.94965 26.1409 7.02712V7.22034L22.5815 19.322L25.9375 18.3051L25.2256 20.7458L21.8188 21.7119Z" fill="#6FC2FB"/>
</g>
<defs>
<clipPath id="clip0_242_83">
<rect width="42" height="42" fill="white" transform="translate(0.462891)"/>
</clipPath>
</defs>
</svg>
