<svg width="454" height="114" viewBox="0 0 454 114" fill="none" xmlns="http://www.w3.org/2000/svg">
<path d="M118.074 81.7V31.9545H124.095V76.3563H147.21V81.7H118.074Z" fill="#102050"/>
<path d="M155.756 81.7V44.3909H161.486V81.7H155.756ZM158.67 38.1727C157.553 38.1727 156.59 37.7922 155.78 37.0311C154.987 36.27 154.591 35.3551 154.591 34.2864C154.591 33.2176 154.987 32.3027 155.78 31.5416C156.59 30.7805 157.553 30.4 158.67 30.4C159.786 30.4 160.741 30.7805 161.535 31.5416C162.344 32.3027 162.749 33.2176 162.749 34.2864C162.749 35.3551 162.344 36.27 161.535 37.0311C160.741 37.7922 159.786 38.1727 158.67 38.1727Z" fill="#102050"/>
<path d="M177.711 59.2563V81.7H171.981V44.3909H177.517V50.2205H178.002C178.876 48.3259 180.204 46.8037 181.984 45.654C183.765 44.4881 186.063 43.9051 188.879 43.9051C191.404 43.9051 193.614 44.4233 195.508 45.4597C197.402 46.4798 198.874 48.0344 199.927 50.1233C200.979 52.196 201.505 54.8193 201.505 57.9932V81.7H195.775V58.3818C195.775 55.4509 195.014 53.1676 193.493 51.5321C191.971 49.8804 189.883 49.0545 187.228 49.0545C185.399 49.0545 183.765 49.4513 182.324 50.2447C180.9 51.0382 179.775 52.196 178.949 53.7182C178.124 55.2403 177.711 57.0864 177.711 59.2563Z" fill="#102050"/>
<path d="M217.317 68.0977L217.22 61.0051H218.385L234.701 44.3909H241.791L224.406 61.9767H223.921L217.317 68.0977ZM211.975 81.7V31.9545H217.705V81.7H211.975ZM235.672 81.7L221.104 63.2398L225.183 59.2563L242.956 81.7H235.672Z" fill="#102050"/>
<path d="M251.982 31.9545L266.744 73.8301H267.327L282.089 31.9545H288.401L270.143 81.7H263.927L245.669 31.9545H251.982Z" fill="#102050"/>
<path d="M307.048 82.4773C303.681 82.4773 300.727 81.6757 298.186 80.0726C295.661 78.4695 293.686 76.2267 292.262 73.3443C290.854 70.4619 290.149 67.0938 290.149 63.2398C290.149 59.3534 290.854 55.9609 292.262 53.0624C293.686 50.1638 295.661 47.9129 298.186 46.3098C300.727 44.7067 303.681 43.9051 307.048 43.9051C310.415 43.9051 313.361 44.7067 315.886 46.3098C318.427 47.9129 320.402 50.1638 321.81 53.0624C323.234 55.9609 323.947 59.3534 323.947 63.2398C323.947 67.0938 323.234 70.4619 321.81 73.3443C320.402 76.2267 318.427 78.4695 315.886 80.0726C313.361 81.6757 310.415 82.4773 307.048 82.4773ZM307.048 77.3278C309.605 77.3278 311.71 76.672 313.361 75.3604C315.012 74.0487 316.234 72.3242 317.027 70.1867C317.82 68.0492 318.217 65.7335 318.217 63.2398C318.217 60.746 317.82 58.4223 317.027 56.2686C316.234 54.1149 315.012 52.3741 313.361 51.0463C311.71 49.7185 309.605 49.0545 307.048 49.0545C304.491 49.0545 302.386 49.7185 300.735 51.0463C299.084 52.3741 297.862 54.1149 297.069 56.2686C296.276 58.4223 295.879 60.746 295.879 63.2398C295.879 65.7335 296.276 68.0492 297.069 70.1867C297.862 72.3242 299.084 74.0487 300.735 75.3604C302.386 76.672 304.491 77.3278 307.048 77.3278Z" fill="#102050"/>
<path d="M332.693 81.7V44.3909H338.423V81.7H332.693ZM335.607 38.1727C334.49 38.1727 333.527 37.7922 332.718 37.0311C331.924 36.27 331.528 35.3551 331.528 34.2864C331.528 33.2176 331.924 32.3027 332.718 31.5416C333.527 30.7805 334.49 30.4 335.607 30.4C336.724 30.4 337.679 30.7805 338.472 31.5416C339.281 32.3027 339.686 33.2176 339.686 34.2864C339.686 35.3551 339.281 36.27 338.472 37.0311C337.679 37.7922 336.724 38.1727 335.607 38.1727Z" fill="#102050"/>
<path d="M364.069 82.4773C360.572 82.4773 357.562 81.6514 355.037 79.9997C352.511 78.348 350.569 76.0729 349.209 73.1743C347.85 70.2757 347.17 66.9642 347.17 63.2398C347.17 59.4506 347.866 56.1067 349.258 53.2081C350.666 50.2933 352.625 48.0182 355.134 46.3827C357.659 44.731 360.605 43.9051 363.971 43.9051C366.594 43.9051 368.957 44.3909 371.061 45.3625C373.165 46.3341 374.889 47.6943 376.233 49.4432C377.576 51.192 378.41 53.2324 378.733 55.5642H373.003C372.566 53.8639 371.595 52.358 370.09 51.0463C368.601 49.7185 366.594 49.0545 364.069 49.0545C361.835 49.0545 359.876 49.6375 358.193 50.8034C356.526 51.9531 355.223 53.5805 354.284 55.6857C353.361 57.7746 352.9 60.2278 352.9 63.0455C352.9 65.9278 353.353 68.4378 354.26 70.5753C355.182 72.7128 356.477 74.3726 358.144 75.5547C359.828 76.7368 361.802 77.3278 364.069 77.3278C365.558 77.3278 366.909 77.0688 368.123 76.5506C369.337 76.0324 370.365 75.2875 371.207 74.3159C372.048 73.3443 372.647 72.1784 373.003 70.8182H378.733C378.41 73.0205 377.608 75.0041 376.33 76.7692C375.067 78.518 373.392 79.9107 371.304 80.947C369.232 81.9672 366.82 82.4773 364.069 82.4773Z" fill="#102050"/>
<path d="M402.746 82.4773C399.152 82.4773 396.053 81.6838 393.447 80.0969C390.857 78.4937 388.858 76.2591 387.45 73.3929C386.058 70.5105 385.362 67.1585 385.362 63.3369C385.362 59.5153 386.058 56.1472 387.45 53.2324C388.858 50.3014 390.816 48.0182 393.325 46.3827C395.85 44.731 398.796 43.9051 402.163 43.9051C404.106 43.9051 406.024 44.229 407.917 44.8767C409.811 45.5244 411.535 46.577 413.089 48.0344C414.643 49.4756 415.881 51.3864 416.804 53.7668C417.726 56.1472 418.188 59.0781 418.188 62.5597V64.9886H389.441V60.0335H412.361C412.361 57.9284 411.94 56.05 411.098 54.3983C410.272 52.7466 409.091 51.443 407.553 50.4876C406.032 49.5322 404.235 49.0545 402.163 49.0545C399.881 49.0545 397.906 49.6213 396.239 50.7548C394.588 51.8722 393.317 53.3295 392.427 55.127C391.537 56.9244 391.092 58.8514 391.092 60.908V64.2114C391.092 67.029 391.577 69.4175 392.548 71.3768C393.536 73.32 394.904 74.8017 396.652 75.8219C398.4 76.8259 400.431 77.3278 402.746 77.3278C404.251 77.3278 405.611 77.1173 406.825 76.6963C408.055 76.2591 409.115 75.6114 410.005 74.7531C410.896 73.8787 411.584 72.7937 412.069 71.4983L417.605 73.0528C417.022 74.9313 416.043 76.583 414.667 78.008C413.291 79.4168 411.592 80.5179 409.568 81.3114C407.545 82.0886 405.271 82.4773 402.746 82.4773Z" fill="#102050"/>
<path d="M453.32 52.7466L448.173 54.204C447.849 53.3457 447.372 52.5118 446.74 51.7021C446.125 50.8763 445.284 50.1962 444.215 49.6618C443.147 49.1274 441.779 48.8602 440.112 48.8602C437.83 48.8602 435.928 49.3865 434.406 50.4391C432.901 51.4754 432.148 52.7952 432.148 54.3983C432.148 55.8233 432.666 56.9487 433.702 57.7746C434.738 58.6004 436.357 59.2886 438.558 59.8392L444.094 61.1994C447.428 62.0091 449.913 63.2479 451.548 64.9158C453.183 66.5675 454 68.6969 454 71.304C454 73.4415 453.385 75.3523 452.155 77.0364C450.941 78.7205 449.241 80.0483 447.056 81.0199C444.871 81.9915 442.33 82.4773 439.432 82.4773C435.628 82.4773 432.48 81.6514 429.987 79.9997C427.495 78.348 425.917 75.9352 425.253 72.7614L430.692 71.4011C431.21 73.4091 432.189 74.9151 433.629 75.919C435.086 76.923 436.988 77.425 439.335 77.425C442.006 77.425 444.126 76.8582 445.696 75.7247C447.283 74.575 448.076 73.1986 448.076 71.5955C448.076 70.3 447.623 69.2151 446.716 68.3406C445.81 67.45 444.418 66.7861 442.54 66.3489L436.324 64.8915C432.909 64.0818 430.4 62.8268 428.798 61.1266C427.212 59.4101 426.418 57.2645 426.418 54.6898C426.418 52.5847 427.009 50.7224 428.191 49.1031C429.389 47.4838 431.015 46.2126 433.071 45.2896C435.143 44.3666 437.49 43.9051 440.112 43.9051C443.803 43.9051 446.7 44.7148 448.804 46.3341C450.925 47.9534 452.43 50.0909 453.32 52.7466Z" fill="#102050"/>
<path d="M15.1936 15.2H98.7584V98.8H15.1936V15.2Z" fill="#102050"/>
<path d="M56.976 0L60.2466 49.1008L97.2641 16.6949L64.8719 53.7281L113.952 57L64.8719 60.2719L97.2641 97.3051L60.2466 64.8992L56.976 114L53.7055 64.8992L16.6879 97.3051L49.0802 60.2719L0 57L49.0802 53.7281L16.6879 16.6949L53.7055 49.1008L56.976 0Z" fill="#F8F6EF"/>
</svg>
