<svg width="693" height="704" viewBox="0 0 693 704" fill="none" xmlns="http://www.w3.org/2000/svg">
<line x1="45.3941" y1="580.204" x2="347.394" y2="350.204" stroke="#E6E4DE" stroke-width="2"/>
<line x1="208.098" y1="641.569" x2="347.098" y2="350.569" stroke="#E6E4DE" stroke-width="2"/>
<line x1="347" y1="662" x2="347" y2="350" stroke="#E6E4DE" stroke-width="2"/>
<path fill-rule="evenodd" clip-rule="evenodd" d="M24.092 588C24.092 591.314 21.4058 594 18.092 594C14.7783 594 12.092 591.314 12.092 588C12.092 584.686 14.7783 582 18.092 582C21.4058 582 24.092 584.686 24.092 588ZM22.092 588C22.092 590.209 20.3012 592 18.092 592C15.8829 592 14.092 590.209 14.092 588C14.092 585.791 15.8829 584 18.092 584C20.3012 584 22.092 585.791 22.092 588Z" fill="#5C4532"/>
<path d="M18.092 597C11.6177 597 6.10132 600.828 4 606.192C4.5119 606.7 5.05114 607.181 5.61533 607.632C7.18007 602.708 12.0888 599 18.092 599C24.0953 599 29.004 602.708 30.5688 607.632C31.133 607.181 31.6722 606.7 32.1841 606.192C30.0828 600.828 24.5664 597 18.092 597Z" fill="#5C4532"/>
<path fill-rule="evenodd" clip-rule="evenodd" d="M194.092 658C194.092 661.314 191.406 664 188.092 664C184.778 664 182.092 661.314 182.092 658C182.092 654.686 184.778 652 188.092 652C191.406 652 194.092 654.686 194.092 658ZM192.092 658C192.092 660.209 190.301 662 188.092 662C185.883 662 184.092 660.209 184.092 658C184.092 655.791 185.883 654 188.092 654C190.301 654 192.092 655.791 192.092 658Z" fill="#5C4532"/>
<path d="M188.092 667C181.618 667 176.101 670.828 174 676.192C174.512 676.7 175.051 677.181 175.615 677.632C177.18 672.708 182.089 669 188.092 669C194.095 669 199.004 672.708 200.569 677.632C201.133 677.181 201.672 676.7 202.184 676.192C200.083 670.828 194.566 667 188.092 667Z" fill="#5C4532"/>
<line x1="649.394" y1="581.796" x2="347.394" y2="351.796" stroke="#E6E4DE" stroke-width="2"/>
<line x1="489.1" y1="645.435" x2="347.1" y2="351.435" stroke="#E6E4DE" stroke-width="2"/>
<path fill-rule="evenodd" clip-rule="evenodd" d="M667.908 588C667.908 591.314 670.594 594 673.908 594C677.222 594 679.908 591.314 679.908 588C679.908 584.686 677.222 582 673.908 582C670.594 582 667.908 584.686 667.908 588ZM669.908 588C669.908 590.209 671.699 592 673.908 592C676.117 592 677.908 590.209 677.908 588C677.908 585.791 676.117 584 673.908 584C671.699 584 669.908 585.791 669.908 588Z" fill="#5C4532"/>
<path d="M673.908 597C680.382 597 685.899 600.828 688 606.192C687.488 606.7 686.949 607.181 686.385 607.632C684.82 602.708 679.911 599 673.908 599C667.905 599 662.996 602.708 661.431 607.632C660.867 607.181 660.328 606.7 659.816 606.192C661.917 600.828 667.434 597 673.908 597Z" fill="#5C4532"/>
<path fill-rule="evenodd" clip-rule="evenodd" d="M497.908 658C497.908 661.314 500.594 664 503.908 664C507.222 664 509.908 661.314 509.908 658C509.908 654.686 507.222 652 503.908 652C500.594 652 497.908 654.686 497.908 658ZM499.908 658C499.908 660.209 501.699 662 503.908 662C506.117 662 507.908 660.209 507.908 658C507.908 655.791 506.117 654 503.908 654C501.699 654 499.908 655.791 499.908 658Z" fill="#5C4532"/>
<path d="M503.908 667C510.382 667 515.899 670.828 518 676.192C517.488 676.7 516.949 677.181 516.385 677.632C514.82 672.708 509.911 669 503.908 669C497.905 669 492.996 672.708 491.431 677.632C490.867 677.181 490.328 676.7 489.816 676.192C491.917 670.828 497.434 667 503.908 667Z" fill="#5C4532"/>
<path fill-rule="evenodd" clip-rule="evenodd" d="M352.092 684C352.092 687.314 349.406 690 346.092 690C342.778 690 340.092 687.314 340.092 684C340.092 680.686 342.778 678 346.092 678C349.406 678 352.092 680.686 352.092 684ZM350.092 684C350.092 686.209 348.301 688 346.092 688C343.883 688 342.092 686.209 342.092 684C342.092 681.791 343.883 680 346.092 680C348.301 680 350.092 681.791 350.092 684Z" fill="#5C4532"/>
<path d="M346.092 693C339.618 693 334.101 696.828 332 702.192C332.512 702.7 333.051 703.181 333.615 703.632C335.18 698.708 340.089 695 346.092 695C352.095 695 357.004 698.708 358.569 703.632C359.133 703.181 359.672 702.7 360.184 702.192C358.083 696.828 352.566 693 346.092 693Z" fill="#5C4532"/>
<line x1="648.606" y1="123.428" x2="346.606" y2="353.428" stroke="#E6E4DE" stroke-width="2"/>
<line x1="485.902" y1="62.063" x2="346.902" y2="353.063" stroke="#E6E4DE" stroke-width="2"/>
<line x1="347" y1="41.6321" x2="347" y2="353.632" stroke="#E6E4DE" stroke-width="2"/>
<path fill-rule="evenodd" clip-rule="evenodd" d="M672.093 105C672.093 108.314 674.779 111 678.093 111C681.406 111 684.093 108.314 684.093 105C684.093 101.686 681.406 99 678.093 99C674.779 99 672.093 101.686 672.093 105ZM674.093 105C674.093 107.209 675.883 109 678.093 109C680.302 109 682.093 107.209 682.093 105C682.093 102.791 680.302 101 678.093 101C675.883 101 674.093 102.791 674.093 105Z" fill="#5C4532"/>
<path d="M678.093 114C684.567 114 690.083 117.828 692.185 123.192C691.673 123.7 691.133 124.181 690.569 124.632C689.004 119.708 684.096 116 678.093 116C672.089 116 667.181 119.708 665.616 124.632C665.052 124.181 664.512 123.7 664 123.192C666.102 117.828 671.618 114 678.093 114Z" fill="#5C4532"/>
<path fill-rule="evenodd" clip-rule="evenodd" d="M479.093 26C479.093 29.3137 481.779 32 485.093 32C488.406 32 491.093 29.3137 491.093 26C491.093 22.6863 488.406 20 485.093 20C481.779 20 479.093 22.6863 479.093 26ZM481.093 26C481.093 28.2091 482.883 30 485.093 30C487.302 30 489.093 28.2091 489.093 26C489.093 23.7909 487.302 22 485.093 22C482.883 22 481.093 23.7909 481.093 26Z" fill="#5C4532"/>
<path d="M485.093 35C491.567 35 497.083 38.8284 499.185 44.192C498.673 44.7004 498.133 45.1812 497.569 45.6321C496.004 40.7077 491.096 37 485.093 37C479.089 37 474.181 40.7077 472.616 45.6321C472.052 45.1812 471.512 44.7004 471 44.1921C473.102 38.8284 478.618 35 485.093 35Z" fill="#5C4532"/>
<line x1="44.6059" y1="121.837" x2="346.606" y2="351.837" stroke="#E6E4DE" stroke-width="2"/>
<line x1="204.9" y1="58.1972" x2="346.9" y2="352.197" stroke="#E6E4DE" stroke-width="2"/>
<path fill-rule="evenodd" clip-rule="evenodd" d="M20.092 105C20.092 108.314 17.4057 111 14.092 111C10.7783 111 8.09204 108.314 8.09204 105C8.09204 101.686 10.7783 99 14.092 99C17.4058 99 20.092 101.686 20.092 105ZM18.092 105C18.092 107.209 16.3012 109 14.092 109C11.8829 109 10.092 107.209 10.092 105C10.092 102.791 11.8829 101 14.092 101C16.3012 101 18.092 102.791 18.092 105Z" fill="#5C4532"/>
<path d="M14.092 114C7.61766 114 2.10131 117.828 -2.11494e-06 123.192C0.511893 123.7 1.05114 124.181 1.61533 124.632C3.18007 119.708 8.08876 116 14.092 116C20.0953 116 25.004 119.708 26.5688 124.632C27.1329 124.181 27.6722 123.7 28.1841 123.192C26.0828 117.828 20.5664 114 14.092 114Z" fill="#5C4532"/>
<path fill-rule="evenodd" clip-rule="evenodd" d="M210.092 26C210.092 29.3137 207.406 32 204.092 32C200.778 32 198.092 29.3137 198.092 26C198.092 22.6863 200.778 20 204.092 20C207.406 20 210.092 22.6863 210.092 26ZM208.092 26C208.092 28.2091 206.301 30 204.092 30C201.883 30 200.092 28.2091 200.092 26C200.092 23.7909 201.883 22 204.092 22C206.301 22 208.092 23.7909 208.092 26Z" fill="#5C4532"/>
<path d="M204.092 35C197.618 35 192.101 38.8284 190 44.192C190.512 44.7004 191.051 45.1812 191.615 45.6321C193.18 40.7077 198.089 37 204.092 37C210.095 37 215.004 40.7077 216.569 45.6321C217.133 45.1812 217.672 44.7004 218.184 44.1921C216.083 38.8284 210.566 35 204.092 35Z" fill="#5C4532"/>
<path fill-rule="evenodd" clip-rule="evenodd" d="M340.093 6C340.093 9.31371 342.779 12 346.093 12C349.406 12 352.093 9.31371 352.093 6C352.093 2.68629 349.406 -9.42272e-07 346.093 -1.23197e-06C342.779 -1.52166e-06 340.093 2.68629 340.093 6ZM342.093 6C342.093 8.20914 343.883 10 346.093 10C348.302 10 350.093 8.20914 350.093 6C350.093 3.79086 348.302 2 346.093 2C343.883 2 342.093 3.79086 342.093 6Z" fill="#5C4532"/>
<path d="M346.093 15C352.567 15 358.083 18.8284 360.185 24.192C359.673 24.7004 359.133 25.1812 358.569 25.6321C357.004 20.7077 352.096 17 346.093 17C340.089 17 335.181 20.7077 333.616 25.6321C333.052 25.1812 332.512 24.7004 332 24.1921C334.102 18.8284 339.618 15 346.093 15Z" fill="#5C4532"/>
</svg>
