<svg width="688" height="729" viewBox="0 0 688 729" fill="none" xmlns="http://www.w3.org/2000/svg">
<line x1="40.7882" y1="590.409" x2="342.788" y2="360.409" stroke="#E6E4DE" stroke-width="4"/>
<line x1="203.195" y1="652.138" x2="342.195" y2="361.138" stroke="#E6E4DE" stroke-width="4"/>
<line x1="342" y1="673" x2="342" y2="361" stroke="#E6E4DE" stroke-width="4"/>
<path d="M1.53445 632.152L1.41466 632.458L1.64769 632.689C2.38691 633.423 3.16563 634.117 3.98038 634.769L4.54873 635.223L4.76906 634.529C6.9203 627.759 13.6858 622.627 22 622.627C30.3142 622.627 37.0797 627.759 39.2309 634.529L39.4513 635.223L40.0196 634.769C40.8344 634.118 41.6131 633.423 42.3523 632.689L42.5853 632.458L42.4655 632.152C39.4046 624.339 31.3843 618.789 22 618.789C12.6157 618.789 4.59543 624.339 1.53445 632.152ZM27.177 606.515C27.177 609.375 24.8591 611.692 22 611.692C19.1408 611.692 16.823 609.375 16.823 606.515C16.823 603.656 19.1408 601.338 22 601.338C24.8591 601.338 27.177 603.656 27.177 606.515ZM22 615.531C26.9791 615.531 31.0154 611.495 31.0154 606.515C31.0154 601.536 26.9791 597.5 22 597.5C17.0209 597.5 12.9846 601.536 12.9846 606.515C12.9846 611.495 17.0209 615.531 22 615.531Z" fill="#E6E4DE" stroke="#E6E4DE"/>
<path d="M164.534 706.152L164.415 706.458L164.648 706.689C165.387 707.423 166.166 708.117 166.98 708.769L167.549 709.223L167.769 708.529C169.92 701.759 176.686 696.627 185 696.627C193.314 696.627 200.08 701.759 202.231 708.529L202.451 709.223L203.02 708.769C203.834 708.118 204.613 707.423 205.352 706.689L205.585 706.458L205.466 706.152C202.405 698.339 194.384 692.789 185 692.789C175.616 692.789 167.595 698.339 164.534 706.152ZM190.177 680.515C190.177 683.375 187.859 685.692 185 685.692C182.141 685.692 179.823 683.375 179.823 680.515C179.823 677.656 182.141 675.338 185 675.338C187.859 675.338 190.177 677.656 190.177 680.515ZM185 689.531C189.979 689.531 194.015 685.495 194.015 680.515C194.015 675.536 189.979 671.5 185 671.5C180.021 671.5 175.985 675.536 175.985 680.515C175.985 685.495 180.021 689.531 185 689.531Z" fill="#E6E4DE" stroke="#E6E4DE"/>
<line x1="644.788" y1="593.591" x2="342.788" y2="363.591" stroke="#E6E4DE" stroke-width="4"/>
<line x1="484.199" y1="656.87" x2="342.199" y2="362.87" stroke="#E6E4DE" stroke-width="4"/>
<path d="M686.466 632.152L686.585 632.458L686.352 632.689C685.613 633.423 684.834 634.117 684.02 634.769L683.451 635.223L683.231 634.529C681.08 627.759 674.314 622.627 666 622.627C657.686 622.627 650.92 627.759 648.769 634.529L648.549 635.223L647.98 634.769C647.166 634.118 646.387 633.423 645.648 632.689L645.415 632.458L645.534 632.152C648.595 624.339 656.616 618.789 666 618.789C675.384 618.789 683.405 624.339 686.466 632.152ZM660.823 606.515C660.823 609.375 663.141 611.692 666 611.692C668.859 611.692 671.177 609.375 671.177 606.515C671.177 603.656 668.859 601.338 666 601.338C663.141 601.338 660.823 603.656 660.823 606.515ZM666 615.531C661.021 615.531 656.985 611.495 656.985 606.515C656.985 601.536 661.021 597.5 666 597.5C670.979 597.5 675.015 601.536 675.015 606.515C675.015 611.495 670.979 615.531 666 615.531Z" fill="#E6E4DE" stroke="#E6E4DE"/>
<path d="M515.466 706.152L515.585 706.458L515.352 706.689C514.613 707.423 513.834 708.117 513.02 708.769L512.451 709.223L512.231 708.529C510.08 701.759 503.314 696.627 495 696.627C486.686 696.627 479.92 701.759 477.769 708.529L477.549 709.223L476.98 708.769C476.166 708.118 475.387 707.423 474.648 706.689L474.415 706.458L474.534 706.152C477.595 698.339 485.616 692.789 495 692.789C504.384 692.789 512.405 698.339 515.466 706.152ZM489.823 680.515C489.823 683.375 492.141 685.692 495 685.692C497.859 685.692 500.177 683.375 500.177 680.515C500.177 677.656 497.859 675.338 495 675.338C492.141 675.338 489.823 677.656 489.823 680.515ZM495 689.531C490.021 689.531 485.985 685.495 485.985 680.515C485.985 675.536 490.021 671.5 495 671.5C499.979 671.5 504.015 675.536 504.015 680.515C504.015 685.495 499.979 689.531 495 689.531Z" fill="#E6E4DE" stroke="#E6E4DE"/>
<path d="M323.534 724.152L323.415 724.458L323.648 724.689C324.387 725.423 325.166 726.117 325.98 726.769L326.549 727.223L326.769 726.529C328.92 719.759 335.686 714.627 344 714.627C352.314 714.627 359.08 719.759 361.231 726.529L361.451 727.223L362.02 726.769C362.834 726.118 363.613 725.423 364.352 724.689L364.585 724.458L364.466 724.152C361.405 716.339 353.384 710.789 344 710.789C334.616 710.789 326.595 716.339 323.534 724.152ZM349.177 698.515C349.177 701.375 346.859 703.692 344 703.692C341.141 703.692 338.823 701.375 338.823 698.515C338.823 695.656 341.141 693.338 344 693.338C346.859 693.338 349.177 695.656 349.177 698.515ZM344 707.531C348.979 707.531 353.015 703.495 353.015 698.515C353.015 693.536 348.979 689.5 344 689.5C339.021 689.5 334.985 693.536 334.985 698.515C334.985 703.495 339.021 707.531 344 707.531Z" fill="#E6E4DE" stroke="#E6E4DE"/>
<line x1="642.212" y1="135.223" x2="340.212" y2="365.223" stroke="#E6E4DE" stroke-width="4"/>
<line x1="479.805" y1="73.4941" x2="340.805" y2="364.494" stroke="#E6E4DE" stroke-width="4"/>
<line x1="341" y1="52.6321" x2="341" y2="364.632" stroke="#E6E4DE" stroke-width="4"/>
<path d="M681.466 116.152L681.585 116.458L681.352 116.689C680.613 117.423 679.834 118.117 679.02 118.769L678.451 119.223L678.231 118.529C676.08 111.759 669.314 106.627 661 106.627C652.686 106.627 645.92 111.759 643.769 118.529L643.549 119.223L642.98 118.769C642.166 118.118 641.387 117.423 640.648 116.689L640.415 116.458L640.534 116.152C643.595 108.339 651.616 102.789 661 102.789C670.384 102.789 678.405 108.339 681.466 116.152ZM655.823 90.5154C655.823 93.3746 658.141 95.6924 661 95.6924C663.859 95.6924 666.177 93.3746 666.177 90.5154C666.177 87.6563 663.859 85.3385 661 85.3385C658.141 85.3385 655.823 87.6563 655.823 90.5154ZM661 99.5309C656.021 99.5309 651.985 95.4945 651.985 90.5154C651.985 85.5363 656.021 81.5 661 81.5C665.979 81.5 670.015 85.5364 670.015 90.5154C670.015 95.4945 665.979 99.5309 661 99.5309Z" fill="#E6E4DE" stroke="#E6E4DE"/>
<path d="M506.466 53.1519L506.585 53.4577L506.352 53.6891C505.613 54.4232 504.834 55.1175 504.02 55.7686L503.451 56.2229L503.231 55.5295C501.08 48.7593 494.314 43.6271 486 43.6271C477.686 43.6271 470.92 48.7594 468.769 55.5295L468.549 56.2229L467.98 55.7687C467.166 55.1175 466.387 54.4232 465.648 53.6891L465.415 53.4577L465.534 53.152C468.595 45.3388 476.616 39.7886 486 39.7886C495.384 39.7886 503.405 45.3388 506.466 53.1519ZM480.823 27.5154C480.823 30.3746 483.141 32.6924 486 32.6924C488.859 32.6924 491.177 30.3746 491.177 27.5154C491.177 24.6563 488.859 22.3385 486 22.3385C483.141 22.3385 480.823 24.6563 480.823 27.5154ZM486 36.5309C481.021 36.5309 476.985 32.4945 476.985 27.5154C476.985 22.5363 481.021 18.5 486 18.5C490.979 18.5 495.015 22.5364 495.015 27.5154C495.015 32.4945 490.979 36.5309 486 36.5309Z" fill="#E6E4DE" stroke="#E6E4DE"/>
<line x1="38.2118" y1="132.041" x2="340.212" y2="362.041" stroke="#E6E4DE" stroke-width="4"/>
<line x1="198.801" y1="68.7622" x2="340.801" y2="362.762" stroke="#E6E4DE" stroke-width="4"/>
<path d="M1.53445 116.152L1.41465 116.458L1.64769 116.689C2.38691 117.423 3.16562 118.117 3.98038 118.769L4.54873 119.223L4.76906 118.529C6.9203 111.759 13.6858 106.627 22 106.627C30.3142 106.627 37.0797 111.759 39.2309 118.529L39.4513 119.223L40.0196 118.769C40.8344 118.118 41.6131 117.423 42.3523 116.689L42.5853 116.458L42.4655 116.152C39.4046 108.339 31.3843 102.789 22 102.789C12.6157 102.789 4.59543 108.339 1.53445 116.152ZM27.177 90.5154C27.177 93.3746 24.8591 95.6924 22 95.6924C19.1408 95.6924 16.823 93.3746 16.823 90.5154C16.823 87.6563 19.1408 85.3385 22 85.3385C24.8591 85.3385 27.177 87.6563 27.177 90.5154ZM22 99.5309C26.9791 99.5309 31.0154 95.4945 31.0154 90.5154C31.0154 85.5364 26.9791 81.5 22 81.5C17.0209 81.5 12.9846 85.5364 12.9846 90.5154C12.9846 95.4945 17.0209 99.5309 22 99.5309Z" fill="#E6E4DE" stroke="#E6E4DE"/>
<path d="M167.534 53.1519L167.415 53.4577L167.648 53.6891C168.387 54.4232 169.166 55.1175 169.98 55.7686L170.549 56.2229L170.769 55.5295C172.92 48.7593 179.686 43.6271 188 43.6271C196.314 43.6271 203.08 48.7594 205.231 55.5295L205.451 56.2229L206.02 55.7687C206.834 55.1175 207.613 54.4232 208.352 53.6891L208.585 53.4577L208.466 53.152C205.405 45.3388 197.384 39.7886 188 39.7886C178.616 39.7886 170.595 45.3388 167.534 53.1519ZM193.177 27.5154C193.177 30.3746 190.859 32.6924 188 32.6924C185.141 32.6924 182.823 30.3746 182.823 27.5154C182.823 24.6563 185.141 22.3385 188 22.3385C190.859 22.3385 193.177 24.6563 193.177 27.5154ZM188 36.5309C192.979 36.5309 197.015 32.4945 197.015 27.5154C197.015 22.5364 192.979 18.5 188 18.5C183.021 18.5 178.985 22.5364 178.985 27.5154C178.985 32.4945 183.021 36.5309 188 36.5309Z" fill="#E6E4DE" stroke="#E6E4DE"/>
<path d="M359.466 35.1519L359.585 35.4577L359.352 35.6891C358.613 36.4232 357.834 37.1175 357.02 37.7686L356.451 38.2229L356.231 37.5295C354.08 30.7593 347.314 25.6271 339 25.6271C330.686 25.6271 323.92 30.7594 321.769 37.5295L321.549 38.2229L320.98 37.7687C320.166 37.1175 319.387 36.4232 318.648 35.6891L318.415 35.4577L318.534 35.152C321.595 27.3388 329.616 21.7886 339 21.7886C348.384 21.7886 356.405 27.3388 359.466 35.1519ZM333.823 9.51544C333.823 12.3746 336.141 14.6924 339 14.6924C341.859 14.6924 344.177 12.3746 344.177 9.51544C344.177 6.65628 341.859 4.33848 339 4.33848C336.141 4.33848 333.823 6.65628 333.823 9.51544ZM339 18.5309C334.021 18.5309 329.985 14.4945 329.985 9.51544C329.985 4.53635 334.021 0.499998 339 0.499998C343.979 0.499999 348.015 4.53635 348.015 9.51544C348.015 14.4945 343.979 18.5309 339 18.5309Z" fill="#E6E4DE" stroke="#E6E4DE"/>
</svg>
